<?xml version="1.0" encoding="UTF-8"?>
<svg id="Layer_1" data-name="Layer 1" xmlns="http://www.w3.org/2000/svg"
  xmlns:xlink="http://www.w3.org/1999/xlink" viewBox="0 0 600 574.1">
  <defs>
    <style>
      .cls-1 {
        fill: #6b0d0e;
      }

      .cls-2 {
        fill: #153c1d;
      }

      .cls-3 {
        fill: none;
      }

      .cls-4 {
        fill: #0e0f25;
      }

      .cls-5 {
        fill: url(#linear-gradient);
      }

      .cls-6 {
        fill: #fff;
        opacity: .07;
        stroke: #29aae1;
        stroke-miterlimit: 10;
        stroke-width: .29px;
      }
    </style>
    <linearGradient id="linear-gradient" x1="304.41" y1="574.19" x2="295.2" y2="10.52"
      gradientUnits="userSpaceOnUse">
      <stop offset="0" stop-color="#d3a143" />
      <stop offset=".47" stop-color="#904f22" />
      <stop offset=".47" stop-color="#935326" />
      <stop offset=".48" stop-color="#9b6231" />
      <stop offset=".48" stop-color="#aa7945" />
      <stop offset=".49" stop-color="#bf9a60" />
      <stop offset=".49" stop-color="#d9c583" />
      <stop offset=".5" stop-color="#f4f0a7" />
      <stop offset=".59" stop-color="#c7ad6f" />
      <stop offset=".68" stop-color="#a57944" />
      <stop offset=".74" stop-color="#8f5929" />
      <stop offset=".78" stop-color="#884d20" />
      <stop offset="1" stop-color="#dabc74" />
    </linearGradient>
  </defs>
  <path d="m253.92,322.65v-9.89s11.62-.92,11.47,9.89" />
  <polyline class="cls-3" points="251.96 400.69 251.94 400.69 251.94 406.63" />
  <polyline class="cls-3" points="251.94 398.6 251.94 400.69 251.96 400.69" />
  <path class="cls-1"
    d="m348.09,175.72c-.12,4.68,5.91,13.06-1.4,14.6-2.31-3.14-1.26-12.21,1.4-14.6Z" />
  <path class="cls-2"
    d="m389.52,344.48v63.96s-7.44-6.01-17.57-6.01-17.71,6.03-17.71,6.03v-35.54c0-3.1-2.47-5.78-5.77-6.05-3.77-.31-6.92,2.46-6.92,5.92v35.65s-7.44-6.01-17.57-6.01-17.71,6.03-17.71,6.03v-35.54c0-3.1-2.47-5.78-5.77-6.05-3.77-.31-6.92,2.46-6.92,5.92v35.65s-7.44-6.01-17.57-6.01-17.71,6.03-17.71,6.03v-35.54c0-3.1-2.47-5.78-5.77-6.05-3.77-.31-6.92,2.46-6.92,5.92v35.65s-7.44-6.01-17.57-6.01-17.71,6.03-17.71,6.03v-39.43h-6.16v-42.77h4.95v-18.85c.59-30.03,21.53-43.54,56.3-42.4l5.93.34-4.29,41.7c-5.58-.66-5.69-.4-5.69-.4-11.92.32-14.3,7.6-13.91,19.61h117.43c18.87,0,24.62,3.68,24.62,18.21Z" />
  <path d="m345.35,322.65v-9.89s-11.62-.92-11.47,9.89" />
  <line class="cls-6" x1="288.79" y1="150.21" x2="282.02" y2="150.21" />
  <g>
    <path class="cls-4"
      d="m357.6,427.33c-1.13-.65-2.22-1.36-3.27-2.12-1.43-1.04-3.01-1.88-4.49-2.88-1.67-1.13-3.31-2.3-4.92-3.51-1.14-.85-2.44-1.58-3.63-2.39-3.08-2.09-6.06-4.35-9.49-5.93-1.87-.86-3.85-1.51-5.9-1.86-8.62-1.77-16.58,4.43-17.16,12.44-.02.28-.03.57-.04.86-.07,6.38,3.45,12.71,10.44,14.31,1.91.44,3.93.47,5.85.04,5.63-1.26,9.85-6.3,9.59-11.74-.16-3.41-2.48-6.35-5.75-7.78-2.66-1.17-6.31-1.43-8.58.62-1.75,1.57-1.99,3.99-1.68,6.13.64,1.79,1.65,3.92,4.04,3.51,2.17-.37,1.54-2.47,1.6-4.08.23-2.74,1.98-3.2,4.02-1.43,6.81,8.55-7.33,15.3-13.21,6.59-5.28-8.05,1.98-16.4,11.98-14.34,3.68.71,6.39,2.8,9.28,4.78,6.38,4.37,12.57,8.87,19.35,12.68,2.17,1.22,4.46,2.24,6.84,3.05,2.23.76,4.72,1.57,7.1,1.61-.05-1.35-.2-2.82-.51-4.14-.03-.14-2.28-.56-2.55-.64-.88-.25-1.74-.53-2.6-.84-1.71-.62-3.37-1.35-4.97-2.2-.44-.23-.88-.47-1.31-.72Z" />
    <path class="cls-4"
      d="m309.63,427.91c-1.13-.65-2.22-1.36-3.27-2.12-1.43-1.04-3.01-1.88-4.49-2.88-1.67-1.13-3.31-2.3-4.92-3.51-1.14-.85-2.44-1.58-3.63-2.39-3.08-2.09-6.06-4.35-9.49-5.93-1.87-.86-3.85-1.51-5.9-1.86-8.62-1.77-16.58,4.43-17.16,12.44-.02.28-.03.57-.04.86-.07,6.38,3.45,12.71,10.44,14.31,1.91.44,3.93.47,5.85.04,5.63-1.26,9.85-6.3,9.59-11.74-.16-3.41-2.48-6.35-5.75-7.78-2.66-1.17-6.31-1.43-8.58.62-1.75,1.57-1.99,3.99-1.68,6.13.64,1.79,1.65,3.92,4.04,3.51,2.17-.37,1.54-2.47,1.6-4.08.23-2.74,1.98-3.2,4.02-1.43,6.81,8.55-7.33,15.3-13.21,6.59-5.28-8.05,1.98-16.4,11.98-14.34,3.68.71,6.39,2.8,9.28,4.78,6.38,4.37,12.57,8.87,19.35,12.68,2.17,1.22,4.46,2.24,6.84,3.05,2.23.76,4.72,1.57,7.1,1.61-.05-1.35-.2-2.82-.51-4.14-.03-.14-2.28-.56-2.55-.64-.88-.25-1.74-.53-2.6-.84-1.71-.62-3.37-1.35-4.97-2.2-.44-.23-.88-.47-1.31-.72Z" />
    <path class="cls-4"
      d="m261.66,428.48c-1.13-.65-2.22-1.36-3.27-2.12-1.43-1.04-3.01-1.88-4.49-2.88-1.67-1.13-3.31-2.3-4.92-3.51-1.14-.85-2.44-1.58-3.63-2.39-3.08-2.09-6.06-4.35-9.49-5.93-1.87-.86-3.85-1.51-5.9-1.86-8.62-1.77-16.58,4.43-17.16,12.44-.02.28-.03.57-.04.86-.07,6.38,3.45,12.71,10.44,14.31,1.91.44,3.93.47,5.85.04,1.94-.43,3.74-1.19,4.97-2.69,1.14-1.4,1.81-3.12,2.04-4.86.42-3.14-.2-6.53-2.25-9.09-.78-.98-1.85-1.81-3.11-2.12s-2.74-.02-3.59.9c-.89.97-.94,2.47-.31,3.61.6,1.07,1.52,1.45,2.53,2.07.88.54,1.61,1.95,1.95,2.86.65,1.75-.02,3.46-1.64,4.49-1.43.91-3.41.83-5.02.46-2.3-.53-4.31-1.94-5.55-3.82-5.28-8.05,1.98-16.4,11.98-14.34,3.68.71,6.39,2.8,9.28,4.78,6.38,4.37,12.57,8.87,19.35,12.68,2.17,1.22,4.46,2.24,6.84,3.05,2.23.76,4.72,1.57,7.1,1.61-.05-1.35-.2-2.82-.51-4.14-.03-.14-2.28-.56-2.55-.64-.88-.25-1.74-.53-2.6-.84-1.71-.62-3.37-1.35-4.97-2.2-.44-.23-.88-.47-1.31-.72Z" />
    <path class="cls-4"
      d="m391.54,420.09c.47-.71.27-1.67-.26-2.36-1.24-1.59-2.96-2.52-4.63-3.68-2.2-1.52-4.43-3.01-6.89-4.13-1.87-.86-3.85-1.51-5.9-1.86-8.62-1.77-16.58,4.43-17.16,12.44-.02.28-.03.57-.04.86-.07,6.38,3.45,12.71,10.44,14.31,1.91.44,3.93.47,5.85.04,5.63-1.26,9.85-6.3,9.59-11.74-.16-3.41-2.48-6.35-5.75-7.78-2.66-1.17-6.31-1.43-8.58.62-1.75,1.57-1.99,3.99-1.68,6.13.64,1.79,1.65,3.92,4.04,3.51,2.17-.37,1.54-2.47,1.6-4.08.23-2.74,1.98-3.2,4.02-1.43,6.81,8.55-7.33,15.3-13.21,6.59-5.28-8.05,1.98-16.4,11.98-14.34,3.68.71,6.39,2.8,9.28,4.78,1.48,1.02,2.73,2.37,4.57,2.85.7.19,1.49.18,2.12-.16.28-.15.49-.35.63-.56Z" />
  </g>
  <path class="cls-1"
    d="m369.09,235.21c-10.02-19.73-22.54-22.52-22.54-22.52-6.88-1.53-13.44-4.12-20.53-4.54-22.77-1.34-49.75-14.5-56.79-37.8,0-.03-1.04-3.44-1.48-5.92-.44-2.49-.42-3.7-.42-5.67,0-1.97,1.02-6.63,1.22-8.08.2-1.45,1.47-5.77,1.47-5.77,0,0,1.13-3.66,2.45-6.6s2.96-5.65,2.96-5.65c0,0,1.24-2.02,3.15-4.31,1.9-2.3,4.59-4.32,4.59-4.32,3.48-2.82,8.63-4.59,8.63-4.59,0,0,6.49-2.56,13.86-2.26,7.36.31,12.27,2.83,12.27,2.83,4.53,1.97,7.41,4.16,7.41,4.16,1.35.81,4.44,3.44,4.44,3.44,1.49,1.24,3.74,3.59,3.74,3.59,0,0,1.76,1.97,2.29,2.61.53.63,1.81,2.33,1.81,2.33.73.81,2.47,3.64,2.47,3.64,1.13,1.74,2.01,3.43,2.01,3.43l1.13,2.17,1.16,2.41.45,1c.43.77.65,1.72.84,2.57.19.85.25,2.44,0,4.03s-.87,2.83-.87,2.83l-.93,2.27s-.92,2.67-1.15,3.46-.48,2.06-.69,3.38-.16,2.38-.11,3.88c.05,1.5,1.11,2.64,1.11,2.64.53.74,1.68.45,1.68.45.96-.14,2.35-.93,2.35-.93.67-.23,2.16-1.67,2.16-1.67l1.27-1.16.26,3.8c.01,1.11.42,3.19.42,3.19.66,1.61,1.7,1.99,1.7,1.99,0,0,.31.48,2.06-1.18s1.71-1.87,2.58-3.18,1.67-3.73,1.67-3.73l1.44-4.48c.39-1.04.6-2.36.6-2.36.71-4.36-.15-6.9-1.39-9.24-1.24-2.35-4.96-6.33-4.96-6.33,0,0-1.98-2.3-2.6-3.03-.62-.73-.97-1.35-.97-1.35l-3.41-6.44c-10.43-18.15-21.57-26.79-36.12-31.11-14.54-4.32-40.07-.29-54.3,21.72-14.24,22.02-13.89,27.59-15.61,43.39-1.72,15.8,12.46,40.91,33.33,55.1,20.87,14.19,51.93,24.03,51.93,24.03,9.02,3.17,6.97,7.53,6.97,7.53-3,6.85-5.84,6.28-5.84,6.28l4.07,41.78s-.61,1.27,16.21-5.9c16.82-7.17,20.94-23.21,20.94-23.21,0,0,9.62-22.92-.4-42.65Zm-13.53-72.9c2.32,1.99,2.31,2.83,0,4.41v-4.41Z" />
  <g>
    <path
      d="m68.91,275.56l.76-18.52,5.21.21-.45,10.99,4.23.17.38-9.39,4.89.2-.38,9.39,9.9.41-.31,7.52-24.24-.99Z" />
    <path
      d="m92.04,242.43l-1.21,8.42,3.8,1.74-1.09,7.58-22.71-12.48,1.16-8.09,25.31-5.57-1.12,7.77-4.14.63Zm-5.41.79l-9.01,1.41,8.25,3.86.76-5.27Z" />
    <path
      d="m92.34,214.8l3.64-5.82c1.66.91,2.96,1.99,3.91,3.22.94,1.24,1.53,2.62,1.77,4.14.24,1.52.07,3.33-.5,5.43-.69,2.54-1.63,4.52-2.81,5.93-1.18,1.41-2.86,2.45-5.04,3.11-2.18.66-4.72.6-7.63-.19-3.87-1.06-6.57-2.9-8.08-5.52-1.52-2.63-1.76-5.82-.74-9.59.8-2.95,2.03-5.1,3.68-6.46,1.65-1.36,3.82-2.12,6.52-2.26l-.32,6.77c-.77.03-1.36.12-1.76.28-.66.25-1.22.63-1.68,1.14s-.79,1.12-.98,1.84c-.45,1.64-.13,3.08.95,4.31.8.93,2.24,1.68,4.34,2.25,2.59.71,4.48.8,5.66.27,1.18-.53,1.96-1.5,2.35-2.93.38-1.38.27-2.54-.31-3.46-.58-.92-1.57-1.74-2.96-2.46Z" />
    <path
      d="m88.33,184.4l2.89-6.9,13.33,5.58c1.32.55,2.48,1.28,3.49,2.18,1,.9,1.76,1.98,2.27,3.23.51,1.25.74,2.43.7,3.55-.06,1.55-.49,3.27-1.28,5.15-.46,1.09-1.03,2.25-1.72,3.47-.69,1.22-1.44,2.17-2.26,2.85s-1.79,1.2-2.92,1.57c-1.13.37-2.2.5-3.19.4-1.6-.17-2.95-.48-4.05-.94l-13.33-5.57,2.89-6.9,13.65,5.71c1.22.51,2.31.57,3.28.18.97-.39,1.71-1.18,2.21-2.39.5-1.19.55-2.27.16-3.22-.39-.96-1.21-1.7-2.45-2.22l-13.65-5.71Z" />
    <path d="m94.53,171.12l3.7-6.52,15.9,9.03,5.78-10.17,5.19,2.95-9.48,16.69-21.1-11.98Z" />
    <path
      d="m105,152.78l13.23-18.55,4.88,3.48-4.44,6.22,14.87,10.61-4.35,6.1-14.87-10.61-4.44,6.22-4.88-3.48Z" />
    <path
      d="m121.77,129.96l13.47-14.9,3.84,3.47-8.44,9.33,2.86,2.59,7.82-8.65,3.67,3.32-7.82,8.65,3.55,3.21,8.68-9.6,4.07,3.68-13.72,15.17-17.99-16.27Zm1.68-11.42l3.88-4.29.08,7.28-2.16,2.39-1.8-5.38Z" />
    <path
      d="m149.17,102.09l8.79-6.84c1.73-1.35,3.31-2.2,4.75-2.56,1.43-.36,2.84-.37,4.22-.03,1.38.34,2.68.97,3.9,1.89,1.22.92,2.34,2.04,3.36,3.34,1.59,2.05,2.59,3.81,3.01,5.3.41,1.49.5,2.94.27,4.34-.23,1.41-.73,2.6-1.48,3.59-1.03,1.36-2.07,2.45-3.12,3.27l-8.79,6.84-14.9-19.14Zm9.29-.27l8.14,10.46,1.45-1.13c1.24-.96,2.01-1.78,2.32-2.46.31-.68.35-1.48.11-2.39-.24-.91-.95-2.14-2.14-3.67-1.58-2.03-2.99-3.16-4.23-3.39-1.24-.23-2.63.25-4.16,1.44l-1.48,1.15Z" />
    <path
      d="m171.96,84.98l17.23-10.33,2.66,4.44-10.79,6.46,1.98,3.31,10.01-6,2.54,4.24-10.01,6,2.46,4.1,11.1-6.65,2.82,4.71-17.54,10.51-12.47-20.81Z" />
    <path
      d="m206.34,66.13l9.26-3.39,8.64,12.55-1.53-15.16,9.25-3.38,8.34,22.78-5.77,2.11-6.36-17.37,1.92,19-5.22,1.91-10.79-15.75,6.36,17.37-5.77,2.11-8.34-22.78Z" />
    <path
      d="m239.01,54.97l19.62-4.33,1.12,5.06-12.28,2.71.83,3.77,11.39-2.51,1.07,4.83-11.39,2.51,1.03,4.67,12.64-2.79,1.18,5.36-19.97,4.4-5.22-23.69Zm7.99-8.33l5.66-1.25-4.15,5.98-3.15.7,1.65-5.43Z" />
    <path
      d="m265.25,49.58l11.08-1.09c2.18-.22,3.98-.09,5.38.37,1.4.46,2.6,1.2,3.59,2.22.99,1.02,1.75,2.25,2.29,3.68.54,1.43.89,2.97,1.05,4.62.25,2.58.16,4.61-.29,6.09-.45,1.48-1.15,2.75-2.09,3.81-.95,1.06-2.01,1.81-3.17,2.25-1.59.6-3.05.96-4.38,1.09l-11.08,1.09-2.38-24.14Zm8,4.73l1.3,13.19,1.83-.18c1.56-.15,2.65-.44,3.27-.85.62-.41,1.08-1.06,1.37-1.96.29-.9.34-2.31.15-4.25-.25-2.56-.84-4.27-1.77-5.13s-2.36-1.2-4.29-1.01l-1.86.18Z" />
    <path
      d="m293.65,47.28l20.08.46-.12,5.18-12.57-.29-.09,3.85,11.66.26-.11,4.95-11.66-.26-.11,4.78,12.94.29-.12,5.49-20.45-.46.55-24.25Z" />
    <path
      d="m334.29,64.77l6.21,2.91c-.7,1.76-1.61,3.18-2.73,4.27-1.12,1.09-2.42,1.84-3.9,2.26-1.48.42-3.3.47-5.45.16-2.61-.38-4.69-1.07-6.23-2.07-1.54-1-2.78-2.54-3.7-4.62-.92-2.08-1.17-4.61-.74-7.59.58-3.97,2.08-6.87,4.5-8.7,2.42-1.83,5.57-2.46,9.43-1.9,3.02.44,5.31,1.4,6.86,2.87,1.55,1.47,2.56,3.54,3.04,6.19l-6.76.51c-.12-.76-.29-1.33-.49-1.71-.33-.63-.78-1.14-1.33-1.53-.56-.39-1.21-.64-1.95-.75-1.68-.24-3.07.25-4.16,1.47-.82.9-1.39,2.43-1.7,4.58-.39,2.66-.25,4.54.42,5.65.66,1.11,1.73,1.76,3.19,1.98,1.42.21,2.55-.04,3.39-.73.84-.69,1.54-1.77,2.08-3.24Z" />
    <path d="m348.37,53l7.3,1.78-5.74,23.57-7.3-1.78,5.74-23.57Z" />
    <path
      d="m362.76,56.47l6.6,2.32,4.17,15.69,4.45-12.66,6.67,2.34-8.04,22.89-6.67-2.34-4.16-15.58-4.41,12.57-6.65-2.34,8.04-22.89Z" />
    <path
      d="m391.31,67.11l17.97,8.97-2.31,4.63-11.25-5.61-1.72,3.45,10.44,5.21-2.21,4.43-10.44-5.21-2.14,4.28,11.58,5.78-2.45,4.92-18.3-9.13,10.83-21.71Z" />
    <path
      d="m425.51,85.99l8.96,6.62c1.77,1.3,3.01,2.6,3.75,3.88.73,1.28,1.12,2.63,1.17,4.05.05,1.42-.21,2.84-.77,4.27-.56,1.42-1.33,2.8-2.31,4.13-1.54,2.09-2.97,3.53-4.3,4.33-1.32.8-2.69,1.27-4.11,1.43s-2.7,0-3.86-.46c-1.58-.62-2.91-1.33-3.99-2.12l-8.96-6.62,14.42-19.51Zm2.76,8.87l-7.88,10.66,1.48,1.09c1.26.93,2.26,1.45,3,1.57.74.11,1.52-.07,2.33-.54.82-.47,1.8-1.49,2.96-3.05,1.53-2.07,2.24-3.73,2.12-4.99s-.95-2.47-2.51-3.62l-1.5-1.11Z" />
    <path
      d="m448.11,103.3l14.61,13.79-3.55,3.77-9.15-8.63-2.65,2.8,8.48,8.01-3.4,3.6-8.48-8.01-3.28,3.48,9.41,8.88-3.77,4-14.87-14.04,16.65-17.64Z" />
    <path
      d="m461.5,139.9l4.64,5.43c-.83.82-1.35,1.6-1.55,2.34-.32,1.21-.05,2.38.81,3.53.64.85,1.34,1.36,2.09,1.53s1.39.04,1.92-.35c.5-.38.79-.94.85-1.68s-.33-2.04-1.18-3.91c-1.38-3.07-2.01-5.54-1.87-7.39.13-1.86.96-3.37,2.47-4.5,1-.75,2.16-1.17,3.48-1.25,1.32-.09,2.67.26,4.05,1.04,1.38.78,2.83,2.18,4.34,4.2,1.86,2.48,2.82,4.71,2.88,6.71s-.83,3.87-2.65,5.63l-4.57-5.4c.76-.81,1.16-1.6,1.19-2.38.04-.78-.26-1.59-.9-2.44-.52-.7-1.07-1.11-1.63-1.24-.56-.13-1.05-.04-1.48.28-.31.23-.48.59-.51,1.06-.04.47.22,1.32.8,2.55,1.4,3.04,2.24,5.35,2.52,6.92.27,1.57.18,2.93-.29,4.09-.47,1.16-1.23,2.14-2.29,2.93-1.24.93-2.65,1.45-4.21,1.55-1.57.1-3.08-.26-4.55-1.09s-2.91-2.18-4.32-4.06c-2.48-3.3-3.56-6.06-3.24-8.28.32-2.22,1.39-4.16,3.22-5.79Z" />
    <path
      d="m480.08,158.04c3.44-1.96,6.66-2.53,9.67-1.71,3.01.82,5.49,2.95,7.44,6.37,2,3.51,2.6,6.75,1.8,9.72-.8,2.97-2.9,5.42-6.29,7.36-2.46,1.4-4.72,2.14-6.77,2.21-2.05.07-3.96-.43-5.73-1.5-1.77-1.07-3.32-2.77-4.66-5.11-1.35-2.38-2.1-4.56-2.23-6.55-.13-1.99.35-3.93,1.43-5.84,1.09-1.9,2.86-3.55,5.32-4.96Zm3.68,6.53c-2.13,1.21-3.43,2.48-3.91,3.8-.48,1.32-.33,2.66.45,4.02.8,1.4,1.87,2.22,3.22,2.47,1.35.25,3.2-.3,5.56-1.65,1.98-1.13,3.2-2.36,3.66-3.68.46-1.32.3-2.67-.48-4.04-.75-1.31-1.81-2.1-3.2-2.37s-3.15.21-5.29,1.44Z" />
    <path
      d="m511.79,194.45l2.8,6.94-13.4,5.4c-1.33.54-2.67.83-4.02.9-1.35.06-2.64-.17-3.88-.7-1.24-.53-2.24-1.21-2.99-2.04-1.04-1.15-1.95-2.67-2.71-4.56-.44-1.09-.85-2.32-1.21-3.68-.37-1.36-.5-2.56-.4-3.61.1-1.05.43-2.11.98-3.17.55-1.06,1.21-1.9,2-2.53,1.26-1.01,2.44-1.73,3.54-2.18l13.4-5.4,2.8,6.94-13.72,5.53c-1.23.49-2.05,1.22-2.46,2.18-.42.96-.38,2.04.11,3.25.48,1.2,1.2,2,2.15,2.4s2.05.36,3.3-.14l13.72-5.53Z" />
    <path
      d="m500.73,211.2l2.25,6.78c-1.08.44-1.85.97-2.32,1.59-.75,1-.95,2.19-.58,3.58.27,1.03.73,1.77,1.36,2.2s1.27.56,1.91.39c.61-.16,1.08-.57,1.42-1.23.34-.66.47-2.02.38-4.07-.12-3.37.23-5.88,1.06-7.55.82-1.68,2.15-2.76,3.99-3.24,1.21-.32,2.44-.27,3.69.15,1.26.42,2.38,1.24,3.36,2.49.98,1.24,1.8,3.08,2.44,5.52.79,3,.84,5.43.14,7.3-.7,1.87-2.23,3.27-4.58,4.21l-2.2-6.73c1.01-.46,1.68-1.04,2-1.75.33-.71.36-1.57.08-2.6-.22-.84-.57-1.43-1.04-1.76-.47-.33-.96-.43-1.47-.3-.37.1-.66.36-.87.79-.22.42-.29,1.31-.22,2.66.15,3.35.06,5.8-.28,7.35-.34,1.55-.94,2.78-1.81,3.68s-1.94,1.51-3.22,1.85c-1.5.4-3,.34-4.49-.15-1.49-.5-2.76-1.41-3.81-2.73-1.05-1.32-1.87-3.12-2.47-5.39-1.05-3.99-1.01-6.95.12-8.9s2.85-3.33,5.17-4.15Z" />
    <path
      d="m506.9,235.18l1.46,7c-1.12.32-1.95.75-2.49,1.31-.86.9-1.19,2.07-.99,3.49.15,1.06.52,1.84,1.1,2.34.58.5,1.2.71,1.85.61.62-.09,1.14-.44,1.55-1.06.41-.62.69-1.95.84-4,.26-3.36.9-5.82,1.91-7.38,1.01-1.57,2.45-2.49,4.33-2.76,1.23-.18,2.45.01,3.65.57,1.2.56,2.22,1.51,3.05,2.85.83,1.35,1.43,3.27,1.79,5.77.44,3.07.21,5.49-.7,7.26-.91,1.77-2.59,2.99-5.03,3.66l-1.42-6.93c1.05-.34,1.78-.85,2.19-1.51.41-.67.53-1.52.38-2.57-.12-.86-.4-1.49-.83-1.87-.43-.38-.91-.54-1.43-.46-.38.06-.7.29-.95.69-.27.39-.44,1.27-.53,2.62-.23,3.34-.6,5.77-1.12,7.27-.51,1.51-1.25,2.66-2.22,3.45-.97.79-2.11,1.28-3.42,1.47-1.54.22-3.02,0-4.44-.66-1.42-.67-2.58-1.71-3.47-3.14-.89-1.43-1.51-3.31-1.84-5.64-.59-4.08-.21-7.02,1.14-8.82,1.35-1.8,3.22-2.98,5.61-3.53Z" />
    <path
      d="m526.54,260.54l.55,20.08-5.18.14-.35-12.57-3.85.11.32,11.66-4.95.14-.32-11.66-4.78.13.36,12.94-5.49.15-.56-20.44,24.25-.67Z" />
  </g>
  <text />
  <g>
    <path
      d="m96.24,390.34c-.43-.84-.75-1.65-.95-2.43-.21-.78-.25-1.56-.11-2.32.13-.76.46-1.53,1-2.31.54-.78,1.34-1.58,2.4-2.42l-.05-.1c-.4.03-.82.02-1.26-.03-.44-.05-.86-.13-1.25-.25-.4-.12-.75-.27-1.06-.47-.31-.2-.53-.43-.67-.69-.73-1.43-1.24-2.7-1.53-3.79-.29-1.09-.41-2.03-.38-2.81s.2-1.41.49-1.88c.29-.48.65-.82,1.07-1.04.39-.2.88-.34,1.46-.42s1.19-.12,1.83-.12c.63,0,1.26.05,1.89.13.62.08,1.17.19,1.65.33.29.09.64.25,1.05.48.41.23.87.51,1.38.84.51.33,1.05.71,1.62,1.11.58.41,1.17.84,1.79,1.29l1.61,1.17c.22-.14.45-.28.69-.43.25-.14.44-.25.58-.32.3-.16.66-.21,1.07-.16.41.05.93.15,1.57.3.39.07.76.17,1.11.3.35.12.56.26.63.4.09.18.05.33-.11.44-1.84,1.1-3.67,2.27-5.5,3.5-1.83,1.24-3.65,2.49-5.47,3.75-.58.41-1.03.81-1.37,1.23-.33.41-.55.84-.66,1.3-.1.45-.1.94.02,1.47.12.52.34,1.1.66,1.74l-5.22,2.19Zm5.07-11.33c.7-.42,1.43-.87,2.18-1.34.76-.48,1.49-.92,2.18-1.34l-.05-.09c-.23-.01-.49-.08-.79-.21-.3-.13-.54-.24-.71-.34-.37-.25-.79-.55-1.29-.9-.49-.36-1-.71-1.51-1.06s-1.02-.66-1.52-.93-.93-.43-1.3-.5c-.21.78-.23,1.57-.05,2.37.18.8.46,1.58.86,2.36.25.48.52.88.82,1.19.3.31.7.58,1.18.81Zm12.94-15.56c.48.03.9.11,1.27.24.37.13.63.34.78.63.08.15.13.37.16.65.03.28,0,.69-.1,1.21-.11.5-.25.93-.43,1.28-.18.35-.42.6-.74.76-.19.1-.43.16-.72.2-.29.04-.67.04-1.14,0-.52-.04-.96-.12-1.34-.24s-.63-.32-.77-.6c-.08-.17-.14-.39-.17-.67-.03-.28,0-.68.11-1.2.13-.5.29-.93.48-1.29.19-.36.42-.61.69-.75.22-.11.47-.19.76-.23.29-.04.68-.04,1.16,0Zm2.84,4.86c.48.03.9.11,1.27.24.37.13.63.35.79.65.08.17.14.38.17.66.03.27-.01.67-.11,1.19-.1.52-.24.95-.41,1.3-.17.35-.42.61-.73.77-.19.1-.43.17-.73.2s-.68.02-1.16-.03c-.52-.02-.97-.09-1.34-.22-.37-.12-.62-.33-.77-.61-.08-.15-.13-.37-.17-.66-.03-.29,0-.7.09-1.22.12-.49.28-.92.48-1.28.2-.36.43-.61.7-.74.2-.1.45-.18.74-.22.29-.04.68-.06,1.17-.03Z" />
    <path
      d="m118.76,405.38c.17-.11.44-.2.83-.27.39-.07.92-.07,1.6,0,.61.02,1.05.06,1.3.13.25.06.43.16.51.29.09.14.07.32-.06.53-.18.25-.39.54-.66.87-.26.33-.56.67-.9,1.02-.34.35-.71.71-1.12,1.06-.41.35-.84.68-1.29.98-.86.57-1.74,1.02-2.65,1.36s-1.78.55-2.6.63c-.82.08-1.55.03-2.18-.14-.64-.18-1.11-.5-1.42-.96-.26-.39-.49-.88-.68-1.46-.2-.58-.35-1.19-.47-1.83-.12-.64-.18-1.28-.19-1.93,0-.64.04-1.23.15-1.77-.68-.08-1.34-.27-1.97-.59-.63-.32-1.23-.71-1.79-1.17-.56-.46-1.08-.98-1.55-1.53-.47-.56-.89-1.11-1.25-1.66-.29-.44-.47-.83-.53-1.16-.06-.34-.06-.63,0-.88.07-.25.17-.45.3-.61.13-.16.26-.27.36-.34l-.06-.09c-.52-.07-1.05-.24-1.58-.53-.53-.29-1.05-.65-1.55-1.09-.5-.44-.98-.93-1.44-1.47-.46-.54-.88-1.1-1.26-1.67-.12-.18-.2-.38-.24-.62-.04-.23-.05-.48,0-.73.04-.25.14-.49.3-.73.16-.24.38-.46.66-.64l1.52-1c.25-.17.5-.26.76-.27.25-.02.5.03.73.13s.45.25.67.44.4.41.57.66c.73,1.11,1.57,2.06,2.5,2.86.94.8,1.95,1.31,3.04,1.53.51.1,1.1.12,1.75.06.66-.07,1.34-.19,2.06-.37.12-.05.25-.03.39.06.14.09.32.31.55.65.24.37.4.68.47.93.07.25.04.42-.09.51-.21.14-.52.28-.92.41-.4.13-.81.25-1.24.36-.42.11-.81.21-1.16.3s-.57.17-.67.23c-.27.18-.41.4-.41.67s.1.55.3.86c.25.38.55.74.89,1.09.34.35.71.65,1.09.92.39.26.8.47,1.22.63.43.15.85.23,1.26.23.28.02.59,0,.92-.04.33-.05.66-.11.98-.18.33-.07.65-.15.96-.25.31-.1.6-.18.85-.27.12-.05.26-.02.42.07.16.09.37.35.65.76.28.42.43.71.45.88.03.17-.02.29-.14.37-.2.13-.45.27-.75.4-.3.13-.59.26-.9.39-.3.12-.6.24-.9.34-.3.1-.55.19-.76.26-.23.38-.38.8-.44,1.29-.06.49-.07.97-.03,1.44.04.48.13.92.25,1.33s.27.74.43.97c.07.11.17.21.28.31.12.1.26.17.41.2s.34.02.56-.02c.21-.05.46-.16.73-.34.3-.2.56-.45.8-.75.24-.3.44-.59.63-.87.18-.28.33-.54.45-.76s.21-.36.28-.41Z" />
    <path
      d="m126.09,431.91c-.85.52-1.75.97-2.71,1.35-.96.38-1.92.69-2.9.92-.98.23-1.95.36-2.91.4-.96.04-1.88-.02-2.76-.19-.88-.17-1.7-.45-2.44-.84-.75-.39-1.4-.91-1.95-1.57-.36-.42-.71-.9-1.05-1.44-.34-.54-.65-1.11-.93-1.71-.28-.6-.53-1.24-.74-1.9s-.37-1.34-.49-2.03c-.04-.23-.07-.43-.07-.6,0-.17.03-.34.11-.5.08-.16.2-.33.36-.5.16-.17.38-.38.66-.62.34-.29.58-.45.72-.5.15-.05.29.01.44.19.08.1.16.3.22.62.06.31.14.68.24,1.09.1.41.23.84.4,1.27.17.44.39.83.68,1.16.46.54,1.01,1.04,1.64,1.48.63.44,1.32.82,2.06,1.14.74.32,1.51.57,2.33.77.81.2,1.63.31,2.44.35.81.04,1.62,0,2.41-.12.8-.12,1.54-.33,2.23-.64-.3-.35-.62-.73-.96-1.16-.35-.43-.69-.89-1.02-1.39-.42-.65-.74-1.32-.96-2s-.31-1.37-.28-2.05c.03-.68.22-1.36.55-2.02.33-.66.84-1.28,1.53-1.87.92-.79,1.92-1.38,3.01-1.79,1.08-.41,2.14-.65,3.17-.71s1.98.03,2.84.29c.86.26,1.52.67,2,1.22.52.61.81,1.33.87,2.17.06.84-.07,1.73-.39,2.67s-.81,1.9-1.46,2.88c-.65.98-1.44,1.91-2.35,2.8l2.07,2.42-4.56,3.35-2.04-2.39Zm2.12-6.44c.37-.43.67-.87.91-1.32s.4-.9.49-1.33.1-.84.03-1.22c-.07-.38-.22-.71-.45-.98-.21-.25-.45-.44-.72-.57-.27-.13-.54-.21-.82-.23-.28-.03-.54-.01-.79.04-.25.06-.47.14-.65.26-.2.25-.33.53-.37.85-.05.32,0,.69.15,1.12.15.43.4.92.76,1.47s.85,1.19,1.46,1.91Z" />
    <path
      d="m151.55,455.88c-.25-.23-.52-.53-.82-.91-.3-.37-.55-.81-.75-1.32-.21-.51-.34-1.09-.4-1.74-.06-.65.02-1.35.24-2.12l-.08-.07c-1.16.6-2.17.95-3.05,1.04-.87.09-1.58-.11-2.11-.6-.38-.35-.68-.75-.91-1.19-.23-.45-.4-.92-.51-1.42s-.17-1.02-.17-1.57c0-.55.02-1.11.08-1.67-.58.08-1.2.04-1.86-.12-.66-.16-1.31-.39-1.95-.7-.64-.3-1.26-.66-1.84-1.06-.59-.41-1.1-.82-1.55-1.23-.39-.36-.66-.7-.83-1.02-.17-.32-.26-.62-.27-.89-.01-.27.04-.52.14-.75.1-.23.23-.42.37-.57l-.09-.09c-.49.05-1.02,0-1.59-.17-.57-.17-1.14-.4-1.71-.7-.58-.3-1.14-.65-1.69-1.05-.55-.4-1.05-.82-1.51-1.24-.16-.15-.29-.33-.38-.54-.1-.22-.16-.46-.17-.71-.02-.26.03-.52.12-.79.1-.27.25-.53.48-.77l1.24-1.33c.19-.21.41-.35.66-.43.24-.08.49-.09.75-.05.25.04.51.13.76.27.25.14.49.31.71.51.36.33.75.67,1.19,1.01.44.35.88.67,1.34.96.46.29.91.54,1.37.74.46.2.88.32,1.28.35.26.03.57.02.91-.04s.71-.15,1.09-.26c.38-.12.75-.25,1.12-.41.37-.15.7-.31,1.01-.48.13-.07.27-.08.42-.03s.39.23.7.52c.31.29.53.55.66.77.12.22.13.39.03.5-.13.14-.3.28-.51.41-.22.14-.45.28-.7.41-.25.14-.5.26-.75.38-.25.12-.46.22-.64.31-.15.08-.3.16-.44.25-.15.09-.27.18-.35.27-.27.29-.35.59-.25.89.11.3.31.6.62.88.75.7,1.47,1.19,2.14,1.49.68.3,1.34.44,1.98.42.64-.02,1.27-.16,1.9-.43s1.28-.62,1.95-1.05c.12-.08.27-.1.45-.03.18.06.46.27.83.6.37.34.58.59.64.75.06.16.04.3-.07.42-.16.18-.36.36-.58.54-.23.18-.46.36-.71.53-.25.17-.49.33-.72.48-.24.15-.44.28-.62.39-.14.28-.24.6-.3.97-.06.37-.07.74-.03,1.11.04.37.14.73.28,1.08.14.35.35.65.62.9.24.22.59.28,1.05.17.46-.11,1.08-.42,1.87-.93.48-.35.96-.73,1.44-1.13.48-.4.86-.72,1.16-.95.15-.14.35-.22.6-.24.26-.03.63.06,1.12.27.51.16.85.29,1.01.39.16.1.23.2.22.3-.03.11-.11.23-.24.36-.38.39-.79.77-1.24,1.15-.45.38-.9.76-1.35,1.14-.41.84-.53,1.67-.34,2.48.18.81.75,1.66,1.72,2.55l-4.13,3.86Z" />
    <path
      d="m149.12,461.06c.52-.19,1.01-.3,1.46-.33.45-.03.83.07,1.15.32.17.13.34.33.53.61.18.28.36.71.53,1.31.15.6.23,1.12.23,1.55,0,.44-.11.81-.34,1.11-.15.19-.36.37-.65.54s-.68.35-1.18.53c-.54.19-1.04.31-1.48.34-.44.04-.82-.06-1.12-.3-.16-.12-.33-.33-.53-.61-.19-.29-.38-.72-.54-1.29-.15-.57-.22-1.09-.21-1.55.02-.46.13-.84.35-1.12.15-.19.36-.38.64-.57.28-.19.67-.37,1.16-.55Zm2.05-5.39c-.17-.13-.31-.3-.43-.51-.12-.21-.2-.44-.24-.68-.04-.25-.03-.51.04-.79.07-.28.21-.55.42-.82l1.11-1.44c.18-.24.39-.4.63-.5.24-.1.48-.13.73-.11.25.02.51.09.77.21.26.11.51.26.75.44.5.38,1.01.74,1.54,1.08.53.34,1.05.64,1.56.9.51.26,1.01.47,1.49.65.48.17.92.28,1.31.33.35-.65.66-1.42.91-2.32.25-.9.41-1.87.46-2.92,0-.25.04-.47.09-.68.05-.21.16-.42.33-.64.17-.22.46-.45.84-.67.39-.22.79-.41,1.22-.57.43-.16.82-.27,1.18-.33.36-.06.61-.04.75.06.15.11.23.28.25.49.02.21.01.49-.02.83-.03.59-.11,1.24-.26,1.95-.15.71-.35,1.42-.6,2.16-.25.73-.56,1.46-.92,2.17-.36.71-.78,1.37-1.25,1.98-.42.54-.93,1.06-1.53,1.56-.6.5-1.19.93-1.78,1.29-.31.17-.61.29-.89.35-.28.06-.63.06-1.05,0-.52-.08-1.09-.21-1.71-.41-.62-.2-1.26-.45-1.92-.75-.66-.3-1.32-.65-1.97-1.04-.65-.39-1.27-.8-1.85-1.25Z" />
    <path
      d="m187.44,456.07l-1.7,2.85c-.25.42-.49.72-.73.92-.24.2-.5.3-.77.33-.27.02-.56-.03-.88-.17-.32-.13-.68-.32-1.08-.56-.4-.24-.73-.47-.99-.68-.26-.21-.43-.44-.53-.68-.1-.24-.11-.51-.05-.82.06-.3.22-.66.47-1.08.28-.46.55-.88.83-1.25.28-.37.57-.7.88-.99.31-.3.65-.56,1.01-.79.36-.23.76-.45,1.2-.65l4.44-2.11c.16-.07.31-.12.45-.15.14-.03.3-.03.48,0,.17.03.37.09.58.18.21.09.46.22.74.39.32.19.57.36.75.5.18.14.3.27.36.4.06.13.06.24,0,.34-.06.1-.15.2-.28.3l-5.15,3.72Zm7.22,4.3l-1.7,2.85c-.25.42-.49.72-.73.92-.24.2-.5.31-.77.33-.27.02-.57-.04-.89-.17-.33-.14-.68-.32-1.08-.55-.4-.24-.73-.47-.99-.68-.26-.21-.44-.44-.54-.68-.1-.24-.12-.51-.05-.81.07-.3.23-.66.48-1.07.28-.46.55-.88.83-1.25.28-.37.57-.7.88-.99.31-.3.65-.56,1.01-.79.36-.23.76-.45,1.2-.65l4.42-2.12c.16-.07.31-.12.45-.15.14-.03.3-.03.47,0,.17.03.37.09.58.18.21.09.46.23.76.4.32.19.57.36.75.5.18.14.3.27.35.39.05.12.05.23,0,.33-.05.1-.15.2-.29.3l-5.14,3.73Z" />
    <path
      d="m203.51,476.27c-.07-.32-.1-.57-.1-.76,0-.19.05-.37.13-.55.13-.27.35-.62.67-1.06.32-.44.67-.86,1.04-1.27s.74-.74,1.09-.99c.35-.26.63-.34.84-.24.18.09.31.23.38.43.07.2.14.42.2.65.18.69.31,1.46.41,2.33.1.87.12,1.79.08,2.76-.05.97-.19,1.97-.42,3-.23,1.03-.59,2.05-1.08,3.06-.41.85-.93,1.69-1.57,2.52-.64.83-1.37,1.61-2.17,2.34-.81.73-1.66,1.38-2.57,1.95-.91.57-1.83,1.01-2.77,1.33s-1.87.48-2.78.49c-.92.01-1.78-.18-2.59-.56-.9-.43-1.81-1.07-2.74-1.91-.93-.84-1.79-1.88-2.61-3.12-.12-.2-.22-.39-.29-.55-.07-.17-.11-.34-.11-.51,0-.17.02-.35.09-.56.07-.21.17-.46.32-.77.2-.41.37-.67.51-.79.14-.11.3-.13.48-.04.13.06.29.22.48.49.19.26.41.56.67.9.26.33.56.67.89,1.01.34.33.73.61,1.18.83.71.34,1.49.53,2.34.59.85.05,1.71,0,2.59-.13.87-.14,1.73-.36,2.57-.66.84-.29,1.6-.62,2.3-.99.7-.36,1.28-.74,1.76-1.13.48-.39.8-.76.96-1.09.13-.28.23-.67.28-1.17.05-.5.06-1.06.05-1.68-.02-.62-.07-1.29-.17-2-.09-.71-.21-1.42-.34-2.13Z" />
    <path
      d="m212.72,489.72c-.13.13-.27.21-.41.24-.14.03-.39-.03-.75-.17-.34-.14-.57-.27-.67-.41-.1-.13-.12-.27-.06-.42.1-.37.27-.82.5-1.34.23-.52.42-1.01.56-1.48.33-.94.67-1.96,1-3.04.34-1.09.67-2.19,1.01-3.32.34-1.12.67-2.25.99-3.37.33-1.12.64-2.19.95-3.21.31-1.02.6-1.96.88-2.83.28-.86.54-1.6.78-2.21.14-.36.43-.67.85-.94.42-.27.97-.55,1.64-.85.46-.23.89-.41,1.29-.54.4-.13.7-.16.9-.08.09.04.16.1.21.2.05.1.06.18.03.24-.32.82-.64,1.72-.98,2.69-.33.97-.67,1.97-1.01,3.01-.34,1.04-.68,2.09-1.02,3.15-.34,1.06-.67,2.08-1,3.07s-.64,1.91-.94,2.78c-.3.87-.59,1.63-.85,2.29-.3.74-.62,1.45-.98,2.12-.35.67-.71,1.29-1.06,1.86-.35.57-.69,1.07-1.02,1.5-.33.44-.61.78-.85,1.04Z" />
    <path
      d="m236.01,498.64c-.61-.2-1.15-.43-1.61-.71s-.78-.64-.93-1.08l-.3.04c-.26.65-.62,1.36-1.09,2.12s-1.03,1.51-1.67,2.26c-.64.74-1.36,1.44-2.14,2.1-.78.65-1.61,1.2-2.49,1.62s-1.79.71-2.72.84c-.93.13-1.88.05-2.83-.26-.38-.12-.8-.3-1.27-.54-.47-.24-.95-.54-1.45-.9s-1-.76-1.51-1.22c-.5-.46-.98-.96-1.43-1.51-.15-.18-.27-.34-.35-.48-.08-.14-.14-.29-.17-.46-.03-.17-.02-.36.02-.59.04-.23.12-.5.22-.83.14-.43.27-.72.39-.85.12-.14.27-.17.46-.11.13.04.31.19.53.43.22.24.47.52.76.82.28.3.6.59.94.88.34.28.71.49,1.1.62.77.25,1.59.35,2.46.3.87-.05,1.74-.2,2.6-.45.87-.25,1.7-.57,2.51-.96.81-.39,1.54-.81,2.19-1.25s1.2-.88,1.64-1.31c.44-.43.73-.82.86-1.15-.02-.11-.07-.28-.15-.52s-.16-.5-.25-.8c-.09-.3-.19-.61-.29-.94-.1-.33-.2-.65-.3-.96-.19-.58-.34-1.14-.47-1.67-.13-.53-.24-1.04-.34-1.54-.05-.27-.07-.54-.07-.81,0-.27.05-.52.12-.77.09-.27.29-.62.6-1.05.31-.43.66-.85,1.04-1.25.38-.4.76-.73,1.14-1,.38-.27.68-.36.91-.29.22.07.35.22.39.46.04.24.08.47.11.71.07.79.17,1.5.28,2.13.11.63.26,1.23.46,1.79.16.49.35.92.58,1.31.23.39.51.74.84,1.06s.73.6,1.18.86c.46.25.99.48,1.6.67l-2.14,5.24Zm-4.69-23.26c.42-.34.84-.6,1.25-.79s.81-.21,1.19-.09c.2.07.44.2.7.4.27.2.58.55.94,1.06.35.5.6.96.75,1.37.15.41.17.8.05,1.18-.07.23-.22.47-.43.73-.21.25-.52.55-.92.88-.45.38-.88.66-1.28.84-.4.18-.79.22-1.15.1-.19-.06-.42-.19-.7-.4-.28-.2-.59-.55-.95-1.04-.34-.48-.58-.95-.72-1.4-.14-.45-.16-.84-.05-1.16.07-.23.21-.48.41-.75.2-.27.51-.58.92-.93Z" />
    <path
      d="m264.89,491.38c-.03.14-.14.4-.33.77s-.45.82-.79,1.33c-.45.69-.83,1.23-1.14,1.62-.31.39-.61.55-.9.49-.31-.06-.64-.15-.99-.26s-.65-.18-.89-.22c-.38-.08-.75-.12-1.12-.12-.37,0-.74.03-1.1.09-.09.43.08.83.52,1.19.43.36,1.04.7,1.82,1.01.78.32,1.68.61,2.7.87,1.02.26,2.07.51,3.15.73l-1.57,5.44c-1.19-.25-2.27-.51-3.25-.79s-1.92-.59-2.81-.94c-.69-.27-1.29-.55-1.83-.82-.53-.27-.97-.57-1.32-.9-.35-.33-.61-.69-.78-1.09-.17-.4-.25-.87-.22-1.4.03-.42.12-.84.28-1.29.16-.44.35-.92.57-1.44l-.03-.07c-.52.07-1.04.17-1.54.31-.5.14-1,.3-1.5.48-.5.18-.98.37-1.46.57-.48.2-.95.39-1.43.56-.96.35-1.89.65-2.79.9-.9.25-1.86.43-2.9.53-1.03.1-2.18.11-3.44.01-1.26-.1-2.74-.32-4.44-.68-.21-.04-.41-.13-.61-.27-.2-.13-.37-.31-.51-.52-.14-.21-.25-.46-.3-.74-.06-.28-.05-.58.01-.9l.37-1.78c.06-.29.18-.54.35-.72.17-.19.38-.33.61-.42.24-.09.5-.14.79-.15.29-.01.58.01.87.07,1.59.33,3.02.56,4.29.68,1.27.12,2.42.17,3.43.14,1.02-.03,1.92-.11,2.71-.23.79-.12,1.51-.27,2.15-.42.64-.16,1.23-.31,1.74-.45.52-.15,1.02-.26,1.5-.33l.03-.13c-.73-.34-1.48-.7-2.25-1.07-.77-.37-1.53-.72-2.28-1.05-.75-.33-1.45-.62-2.12-.88-.67-.26-1.26-.44-1.78-.55-.63-.13-1.15-.17-1.57-.12-.42.05-.77.13-1.06.25-.29.12-.52.22-.7.32s-.36.13-.52.1c-.15-.03-.25-.12-.29-.26-.04-.14-.02-.39.06-.75.07-.35.14-.61.21-.78.06-.17.14-.31.24-.42.83-1.33,1.71-2.24,2.65-2.75s1.92-.66,2.95-.44c1.41.29,2.82.77,4.24,1.43,1.42.66,2.94,1.42,4.57,2.29,1.34.7,2.83,1.37,4.46,2,1.64.63,3.3,1.13,4.99,1.48.25.05.35.21.29.48Zm-17.84,11.89c.39-.4.78-.71,1.17-.94.39-.22.78-.3,1.17-.21.21.04.46.15.74.32s.63.49,1.05.95c.4.48.69.91.89,1.3.2.39.25.77.17,1.15-.05.24-.17.49-.35.77-.18.28-.46.61-.83,1-.41.41-.8.73-1.18.95-.38.23-.76.3-1.14.22-.2-.04-.44-.15-.74-.32-.3-.17-.65-.48-1.05-.93-.39-.45-.68-.88-.86-1.3-.19-.43-.25-.81-.17-1.16.05-.24.16-.5.33-.79.17-.29.44-.62.81-1Z" />
    <path
      d="m273.77,484.91c-.06.97-.11,1.95-.15,2.95-.04,1-.08,1.98-.12,2.95-.04.96-.08,1.88-.13,2.75-.05.87-.11,1.65-.19,2.34-.09.76-.26,1.53-.5,2.3-.24.77-.52,1.48-.81,2.13-.3.65-.61,1.22-.94,1.71s-.61.82-.86,1c-.86.5-1.79.86-2.78,1.09-.99.23-2.11.26-3.35.11-.21-.03-.42-.1-.63-.22-.21-.12-.39-.27-.56-.46-.16-.19-.29-.43-.37-.7-.08-.28-.1-.58-.06-.92l.22-1.8c.04-.3.13-.55.28-.75.15-.2.34-.36.57-.47.23-.11.48-.18.77-.22.28-.04.58-.04.87,0,.86.1,1.69.06,2.49-.13.8-.19,1.49-.63,2.08-1.32.04-.37.09-.74.12-1.12.04-.38.08-.75.12-1.11.02-1.86.04-3.63.04-5.3,0-1.67.06-3.26.17-4.77.03-.37.06-.71.09-1.02.03-.31.08-.61.14-.89-.21-.27-.38-.63-.5-1.09-.12-.46-.16-.92-.1-1.37.04-.37.16-.73.33-1.09.18-.36.4-.71.66-1.04.26-.33.56-.65.88-.96.32-.31.65-.59.96-.85.14-.11.25-.16.32-.16.18.02.27.12.25.29,0,.34.03.66.08.96.05.29.15.6.31.93.16.33.37.69.66,1.08.28.39.65.86,1.1,1.4.21.27.34.48.4.64.05.16.07.32.05.49-.03.21-.1.46-.23.75s-.28.56-.47.83c-.18.27-.38.5-.6.7s-.42.33-.62.38Z" />
    <path
      d="m281,505.15c-.08.17-.19.28-.32.35-.13.07-.38.09-.77.06-.37-.03-.62-.09-.76-.18-.14-.1-.2-.22-.19-.38-.01-.39,0-.86.07-1.43.06-.57.09-1.09.08-1.58.03-1,.04-2.07.03-3.2,0-1.14-.02-2.29-.05-3.46-.02-1.17-.05-2.34-.07-3.51-.03-1.17-.05-2.28-.06-3.35-.02-1.06-.02-2.05-.02-2.96s.03-1.69.08-2.34c.03-.38.2-.77.52-1.15.32-.38.76-.82,1.31-1.31.37-.36.72-.66,1.06-.91.34-.25.62-.36.83-.35.1,0,.19.05.26.13s.11.15.1.22c-.05.88-.09,1.84-.11,2.86-.03,1.03-.04,2.09-.05,3.18,0,1.09-.02,2.2-.02,3.31s-.01,2.19-.02,3.22c-.01,1.04-.03,2.01-.05,2.93-.03.92-.06,1.74-.12,2.45-.06.8-.15,1.57-.29,2.32-.13.75-.28,1.44-.44,2.09-.16.65-.33,1.23-.51,1.74-.18.52-.35.93-.5,1.25Z" />
    <path
      d="m322.42,505.09c-1.15.07-2.07-.05-2.74-.34.01.24.01.5,0,.78-.02.28-.05.56-.09.85-.05.95-.17,1.83-.37,2.64-.2.82-.46,1.54-.8,2.15-.5.76-1.11,1.47-1.84,2.13-.73.66-1.56,1.24-2.51,1.74-.95.5-2,.9-3.14,1.22-1.15.32-2.39.51-3.72.59-1.61.09-2.98-.07-4.12-.49-1.14-.41-2.07-1-2.81-1.77-.74-.77-1.29-1.67-1.65-2.7-.37-1.04-.58-2.12-.64-3.26-.08-1.34.05-2.66.37-3.95.32-1.3.78-2.63,1.39-4.01.09-.21.18-.38.28-.51.1-.13.22-.24.36-.31.14-.07.31-.12.52-.16s.46-.06.78-.08c.4-.02.68,0,.84.05s.25.18.26.38c0,.16-.06.41-.2.76-.14.35-.3.77-.46,1.27-.17.5-.31,1.06-.43,1.68s-.16,1.3-.12,2.01c.05.88.24,1.67.56,2.35.32.68.76,1.25,1.32,1.7s1.21.79,1.96,1c.75.21,1.59.3,2.5.24.8-.04,1.65-.19,2.56-.42.91-.24,1.78-.57,2.61-.99.83-.43,1.57-.94,2.23-1.55.65-.61,1.12-1.3,1.4-2.07-.03-.24-.09-.57-.18-.98-.08-.44-.19-.93-.34-1.48-.15-.55-.32-1.1-.52-1.66s-.43-1.11-.69-1.66c-.26-.55-.55-1.05-.88-1.5-.17-.23-.29-.44-.37-.61s-.12-.37-.13-.58c-.02-.3.05-.66.2-1.09.15-.43.33-.85.56-1.25.23-.41.46-.75.71-1.04.25-.29.46-.44.63-.45.17,0,.33.04.48.16.15.11.32.32.51.62.41.69.78,1.35,1.1,1.98.32.63.68,1.24,1.09,1.83.34.52.8.85,1.38.99.58.14,1.35.18,2.32.13l-.11,5.66Zm-17.47-16.27c.27-.47.57-.87.89-1.18s.68-.49,1.07-.51c.21-.01.48.03.8.12.32.09.74.3,1.26.65.5.34.9.68,1.19,1,.29.33.45.69.47,1.09.01.24-.03.52-.13.83s-.29.7-.54,1.15c-.29.52-.58.93-.89,1.25-.31.32-.66.49-1.04.51-.2.01-.47-.03-.8-.12-.33-.09-.75-.3-1.26-.63-.49-.33-.88-.68-1.17-1.05-.29-.37-.45-.72-.47-1.07-.01-.24.02-.53.11-.85.09-.33.26-.72.52-1.2Z" />
    <path
      d="m322.78,505.07c-.21.03-.43.01-.66-.05-.23-.06-.45-.17-.66-.31-.21-.15-.38-.34-.53-.59-.15-.25-.25-.54-.29-.88l-.24-1.8c-.04-.3-.01-.56.09-.8.1-.24.24-.44.44-.6.19-.16.42-.3.69-.41s.55-.18.84-.22c.62-.08,1.24-.2,1.85-.34.61-.14,1.19-.3,1.74-.48s1.04-.38,1.5-.6c.46-.22.84-.45,1.16-.7-.21-.71-.55-1.47-1.01-2.28-.46-.81-1.05-1.6-1.76-2.37-.17-.18-.31-.36-.42-.55-.11-.18-.19-.41-.22-.68-.04-.28,0-.64.11-1.07.11-.43.26-.86.45-1.27.19-.41.39-.77.6-1.07.21-.3.4-.46.57-.49.18-.03.36.03.52.17.16.14.35.33.58.59.4.43.81.95,1.2,1.55.4.6.77,1.25,1.12,1.94.35.69.65,1.42.9,2.18.25.76.43,1.51.54,2.28.09.68.1,1.41.04,2.19-.07.78-.18,1.5-.33,2.17-.1.34-.22.64-.38.88-.15.24-.4.49-.74.74-.42.32-.92.62-1.49.93-.58.3-1.2.58-1.88.84-.68.26-1.38.48-2.12.68-.74.19-1.46.34-2.18.44Zm2.4,5.24c.23-.51.5-.93.79-1.27.29-.34.63-.54,1.03-.59.21-.03.48-.01.81.05.32.06.76.24,1.3.54.53.32.96.62,1.27.93.31.3.5.64.55,1.03.03.24,0,.52-.07.84-.08.32-.23.72-.45,1.21-.25.52-.51.95-.79,1.29-.28.34-.62.54-1,.59-.2.03-.47,0-.81-.05-.34-.06-.77-.24-1.3-.52-.51-.29-.93-.6-1.25-.94-.32-.34-.5-.68-.55-1.04-.03-.24-.02-.53.04-.86.06-.33.21-.74.43-1.21Z" />
    <path
      d="m340.44,501.46c-.04.18-.11.32-.21.42-.1.1-.35.18-.72.25-.36.07-.62.07-.78.02-.16-.06-.25-.16-.28-.32-.11-.37-.21-.84-.3-1.4-.08-.56-.19-1.08-.32-1.55-.23-.97-.49-2.01-.79-3.1-.3-1.1-.61-2.21-.93-3.34-.32-1.13-.64-2.25-.97-3.37-.33-1.12-.63-2.19-.92-3.22-.29-1.03-.55-1.98-.78-2.86s-.41-1.64-.53-2.28c-.07-.38,0-.79.21-1.25.21-.45.52-.99.93-1.6.27-.44.53-.83.8-1.15s.5-.51.71-.55c.1-.02.19,0,.28.06.09.06.14.12.16.19.18.87.38,1.8.62,2.8.24,1,.49,2.03.76,3.09.27,1.06.55,2.13.83,3.2s.55,2.12.8,3.12c.25,1,.49,1.95.7,2.85.21.9.38,1.69.52,2.39.15.78.25,1.55.31,2.31.06.76.1,1.47.11,2.13,0,.67,0,1.27-.05,1.81-.04.54-.1.99-.16,1.34Zm3.4,6.08c.13-.02.2.01.22.11.02.13.04.29.04.48,0,.2-.03.49-.09.88-.06.37-.13.69-.2.94-.08.25-.16.4-.25.45-1.37.56-2.43,1.07-3.17,1.51-.74.44-1.3.83-1.67,1.15-.37.32-.6.57-.71.74s-.21.27-.31.29c-.13.02-.23-.09-.31-.34-.08-.25-.16-.58-.24-.99-.04-.2.03-.45.21-.77.18-.32.43-.64.76-.98-.54-.11-.99-.33-1.34-.65-.35-.32-.57-.72-.66-1.21-.11-.6-.09-1.2.08-1.8.16-.6.42-1.14.77-1.64.35-.5.77-.93,1.27-1.27s1.03-.57,1.59-.68c.53-.1,1-.07,1.39.1.39.16.63.45.71.86.04.21.04.47.02.78-.03.31-.1.63-.21.97-.04.17-.13.26-.27.29-.08.02-.17,0-.25-.06-.08-.06-.19-.12-.32-.19-.13-.07-.3-.12-.5-.16-.2-.03-.46-.02-.79.04-.45.08-.82.27-1.1.54-.29.28-.41.56-.35.84.04.24.18.43.41.56.23.14.49.23.77.29.29.05.58.08.87.07.3,0,.54-.02.74-.06.24-.04.52-.13.84-.24.32-.12.63-.24.92-.36.3-.12.55-.23.77-.33.21-.1.34-.15.38-.16Z" />
    <path
      d="m347.14,475.96c.13.52.23,1.01.3,1.47.06.45.09.9.09,1.32,0,.43-.06.85-.15,1.27-.09.42-.22.86-.38,1.31l-1.66,4.64c-.05.16-.11.3-.2.42-.09.13-.2.24-.34.34-.14.1-.32.2-.52.28-.21.08-.47.17-.79.25-.36.09-.66.15-.89.18-.24.03-.41.02-.54-.03-.12-.05-.2-.13-.24-.24-.04-.11-.04-.25-.01-.44l1-6.26-.82-3.21c-.12-.47-.17-.86-.14-1.17.02-.31.12-.56.3-.77.18-.21.43-.38.75-.51.33-.13.72-.26,1.17-.38.46-.12.85-.19,1.18-.23.33-.03.61,0,.85.1.24.1.44.28.61.54.17.26.31.62.43,1.09Zm8.12-2.08c.13.53.23,1.01.3,1.47.06.45.09.9.09,1.32,0,.43-.05.85-.14,1.27-.08.42-.21.86-.39,1.31l-1.64,4.63c-.06.16-.13.3-.21.43-.08.12-.19.24-.33.34-.14.1-.32.2-.54.28-.21.08-.48.17-.8.25-.36.09-.65.15-.88.18-.23.03-.4.02-.53-.03-.12-.05-.2-.13-.24-.24-.04-.11-.05-.25-.03-.43l1-6.26-.82-3.21c-.12-.47-.17-.86-.13-1.17.03-.31.13-.57.3-.77.17-.2.42-.37.74-.51.33-.13.72-.26,1.17-.38s.85-.19,1.18-.22c.33-.03.61,0,.85.1.24.1.44.28.61.54.17.26.31.62.43,1.09Z" />
    <path
      d="m411.78,475.8c-.71.33-1.41.58-2.09.76-.68.17-1.33.24-1.94.21-.61-.03-1.19-.16-1.73-.41-.54-.24-1.01-.62-1.42-1.12-.67,1.08-1.49,2.2-2.46,3.34-.97,1.14-2.06,2.25-3.27,3.33s-2.53,2.1-3.97,3.07c-1.43.97-2.95,1.83-4.55,2.58-2.27,1.06-4.27,1.74-6,2.01-1.73.28-3.24.24-4.53-.12-1.29-.35-2.39-.98-3.29-1.88-.9-.9-1.65-2-2.26-3.29-.51-1.1-.84-2.2-.98-3.3-.14-1.11-.2-2.12-.17-3.03,0-.24.02-.43.06-.59.04-.16.11-.31.21-.43.1-.12.24-.24.42-.35.18-.11.41-.23.69-.36.36-.17.63-.26.8-.27.17,0,.3.08.38.26.07.16.12.42.15.78s.07.77.11,1.22c.05.45.12.92.21,1.41.1.49.24.94.43,1.35.41.88.95,1.57,1.63,2.08s1.5.82,2.49.92c.99.1,2.14,0,3.47-.34,1.32-.33,2.85-.9,4.58-1.71,1.23-.57,2.41-1.23,3.55-1.96,1.14-.73,2.21-1.51,3.21-2.32s1.92-1.65,2.76-2.52c.84-.87,1.58-1.72,2.22-2.56.64-.84,1.16-1.66,1.56-2.44.4-.79.67-1.51.8-2.17.03-.17.2-.33.51-.47.46-.22.73-.26.8-.11.06.13.1.27.13.43.03.16.11.38.23.65.32.68.69,1.22,1.1,1.6.41.38.85.64,1.31.78.46.14.93.17,1.42.1.49-.07.96-.21,1.41-.42l2.01,5.29Zm-17,15.41c.07-.55.2-1.04.37-1.45.18-.41.44-.71.81-.88.19-.09.45-.15.78-.19.33-.04.8,0,1.41.13.6.14,1.1.31,1.49.51.39.2.67.47.83.81.1.22.16.49.19.82.02.33,0,.76-.07,1.29-.08.57-.2,1.06-.37,1.47s-.43.7-.78.86c-.18.08-.44.15-.78.19-.34.04-.81,0-1.4-.11-.58-.12-1.07-.3-1.47-.53-.41-.23-.68-.5-.84-.82-.1-.22-.17-.5-.21-.83-.04-.34-.02-.76.05-1.29Z" />
    <path
      d="m429.56,457.33c.45-.32.96-.66,1.51-1.03.55-.37,1.24-.82,2.06-1.37l2.77,4.93c-.83.57-1.63,1.1-2.4,1.57s-1.58.94-2.46,1.4c-.72.39-1.43.7-2.16.92-.72.22-1.42.28-2.1.16-.98,1.07-2.06,2.12-3.21,3.14s-2.36,2.03-3.6,3.02c-1.25.98-2.52,1.94-3.83,2.86-1.31.92-2.62,1.82-3.92,2.69-.18.12-.38.2-.62.25-.24.05-.48.05-.73,0-.25-.04-.49-.14-.74-.29-.24-.16-.46-.38-.65-.66l-1.01-1.51c-.17-.25-.26-.5-.27-.76-.02-.25.03-.5.13-.73.1-.23.25-.45.44-.67.19-.21.41-.4.64-.56l2.37-1.58.22-1.33c-.04-.25-.12-.51-.22-.79-.1-.28-.23-.57-.37-.87-.15-.29-.3-.59-.47-.88s-.33-.56-.5-.81c-.45-.59-.97-1.25-1.57-1.97-.6-.72-1.2-1.43-1.8-2.13-.6-.7-1.16-1.35-1.69-1.97-.52-.62-.93-1.14-1.23-1.56-.26-.32-.5-.63-.71-.93-.21-.3-.4-.61-.57-.95-.36-.07-.72-.23-1.1-.49-.38-.25-.69-.58-.95-.97-.2-.3-.34-.64-.44-1.03-.1-.39-.16-.8-.19-1.23-.03-.43-.03-.87.02-1.31.04-.44.1-.86.17-1.27.03-.16.09-.27.19-.33.05-.03.1-.05.17-.05.07,0,.12.03.17.1.23.27.47.5.72.7.25.19.54.37.87.52.33.15.73.29,1.19.4.46.11,1.02.22,1.68.31.33.05.57.13.72.21.15.09.27.2.36.33.12.18.22.42.31.72.09.3.15.61.19.94.04.33.04.64.01.94-.03.3-.11.54-.23.71.4.55.83,1.14,1.29,1.77.46.63.92,1.26,1.39,1.89.46.63.92,1.25,1.36,1.84s.84,1.15,1.19,1.65c.21.31.4.63.57.97s.31.67.41,1c.17-1.05.39-2.19.67-3.4.27-1.21.62-2.38,1.05-3.53.43-1.14.95-2.2,1.57-3.16.62-.97,1.36-1.74,2.22-2.31.45-.3.96-.53,1.53-.7.57-.16,1.16-.27,1.77-.31.61-.04,1.23-.03,1.84.04.61.07,1.19.2,1.74.38.55.18,1.04.41,1.47.69.43.28.77.6,1.02.97.26.39.5.83.71,1.31.21.48.39.97.53,1.46.14.49.25.96.31,1.41.06.46.09.85.07,1.18h.11Zm-14.31,9.33c.77-.55,1.55-1.13,2.36-1.76.8-.63,1.59-1.27,2.35-1.93.76-.66,1.48-1.32,2.15-1.98.67-.66,1.26-1.29,1.77-1.9.51-.6.91-1.16,1.21-1.68.3-.52.46-.97.47-1.35-.2-.2-.51-.37-.93-.53-.43-.16-.91-.27-1.45-.31-.54-.04-1.12,0-1.72.13s-1.19.38-1.75.75c-.52.35-1.02.89-1.48,1.62-.46.73-.89,1.57-1.28,2.52-.39.95-.72,1.98-1.01,3.1-.29,1.12-.51,2.23-.68,3.33Z" />
    <path
      d="m429.1,439.25c.65.72,1.31,1.45,2,2.18.68.73,1.36,1.45,2.02,2.15.66.7,1.28,1.38,1.87,2.02.59.64,1.1,1.24,1.53,1.79.48.6.91,1.26,1.28,1.97.38.71.69,1.4.94,2.08s.44,1.29.56,1.87c.12.57.15,1.01.11,1.32-.25.97-.64,1.88-1.18,2.74-.53.86-1.29,1.69-2.27,2.47-.17.13-.37.23-.6.3-.23.07-.47.09-.72.07-.25-.02-.5-.09-.76-.23-.25-.13-.49-.34-.7-.6l-1.13-1.42c-.19-.23-.3-.48-.34-.73s-.01-.5.07-.74c.08-.24.21-.47.38-.7.17-.23.38-.44.61-.62.68-.54,1.23-1.16,1.66-1.87.42-.7.6-1.51.51-2.41-.23-.29-.47-.58-.71-.87-.24-.29-.48-.58-.71-.87-1.31-1.32-2.56-2.58-3.75-3.75-1.19-1.18-2.28-2.33-3.27-3.47-.24-.28-.46-.54-.67-.78-.2-.24-.38-.48-.54-.72-.34-.04-.72-.17-1.13-.41s-.76-.53-1.05-.89c-.23-.29-.41-.62-.54-1-.13-.38-.22-.78-.27-1.2-.05-.42-.08-.86-.07-1.3,0-.45.03-.87.07-1.29.02-.18.06-.29.11-.34.14-.12.27-.11.38.03.25.24.49.45.74.62.24.17.54.31.88.43.34.12.75.22,1.23.29.48.07,1.07.14,1.77.2.34.04.58.09.73.17.15.07.28.18.38.31.13.17.26.4.37.69.11.29.2.6.26.91.06.32.09.62.08.92,0,.3-.06.53-.16.7Z" />
    <path
      d="m447.34,449.33c.06.18.07.33.03.47-.04.14-.21.33-.5.58-.28.24-.5.38-.67.41-.16.03-.3-.02-.4-.14-.28-.26-.6-.62-.96-1.06-.36-.45-.71-.84-1.06-1.18-.68-.73-1.43-1.49-2.24-2.29-.81-.8-1.64-1.6-2.48-2.42-.84-.82-1.69-1.63-2.53-2.43-.85-.8-1.65-1.58-2.41-2.32-.76-.74-1.47-1.44-2.1-2.08s-1.17-1.21-1.6-1.71c-.25-.29-.4-.69-.44-1.19-.04-.5-.04-1.11,0-1.85,0-.52.04-.98.11-1.4.07-.41.18-.69.34-.83.08-.06.17-.1.27-.09.11,0,.18.03.23.08.59.66,1.24,1.36,1.94,2.11s1.44,1.51,2.21,2.29c.77.78,1.54,1.56,2.33,2.35.79.79,1.54,1.56,2.26,2.3.72.74,1.4,1.44,2.03,2.11.63.67,1.18,1.27,1.65,1.81.52.6,1,1.22,1.43,1.84s.82,1.22,1.16,1.79c.34.57.63,1.1.87,1.59.24.49.41.91.53,1.24Z" />
    <path
      d="m441.8,417.02c-.14-.46-.21-.88-.22-1.28,0-.39.1-.71.32-.95.12-.13.3-.25.55-.38.25-.13.64-.24,1.17-.33.51-.07.96-.09,1.34-.04.38.04.71.19.97.43.16.14.3.35.44.61.14.26.27.62.4,1.06.14.5.22.94.24,1.34.02.39-.08.71-.29.94-.12.14-.31.27-.57.39-.25.13-.64.23-1.16.31-.51.05-.97.05-1.38,0-.41-.05-.72-.18-.94-.38-.18-.16-.34-.37-.48-.63-.14-.26-.28-.62-.41-1.09Zm3.56-4.36c-.14-.46-.21-.88-.22-1.28,0-.39.11-.72.34-.97.12-.13.31-.26.56-.39.25-.12.63-.22,1.15-.31.52-.08.98-.1,1.37-.07s.72.18.98.42c.16.14.3.35.44.61.14.26.26.63.37,1.1.16.5.25.94.26,1.33.01.39-.09.7-.3.93-.12.13-.3.25-.56.39-.26.13-.65.25-1.18.34-.5.06-.96.06-1.36,0s-.72-.2-.94-.4c-.17-.15-.32-.36-.46-.62-.14-.26-.29-.62-.44-1.08Zm27.91,11.86c-.64.69-1.28,1.27-1.94,1.74-.66.46-1.37.77-2.13.92-.76.14-1.6.1-2.52-.13-.92-.23-1.95-.7-3.1-1.41l-.07.08c.17.37.3.76.41,1.19.11.43.18.85.21,1.26.03.41,0,.8-.07,1.15-.08.36-.21.64-.42.87-1.09,1.19-2.1,2.11-3.02,2.75-.93.65-1.76,1.09-2.5,1.33-.74.24-1.39.3-1.94.2-.55-.11-1-.32-1.34-.64-.33-.3-.63-.71-.91-1.22-.28-.52-.53-1.07-.75-1.67-.22-.59-.4-1.2-.54-1.82-.14-.61-.23-1.17-.26-1.66-.01-.3.02-.69.09-1.15.07-.47.17-1,.31-1.59.14-.59.29-1.23.48-1.91.18-.68.38-1.39.59-2.13l.54-1.92c-.21-.15-.42-.32-.64-.5-.22-.18-.39-.33-.5-.43-.25-.23-.43-.55-.53-.95-.1-.4-.19-.92-.26-1.58-.07-.39-.1-.77-.11-1.15,0-.37.04-.62.15-.73.13-.15.29-.16.45-.05,1.67,1.34,3.41,2.65,5.2,3.93,1.79,1.28,3.6,2.55,5.42,3.82.58.4,1.12.68,1.63.85.5.17.98.22,1.44.16.46-.06.92-.24,1.37-.53.45-.29.92-.7,1.4-1.22l3.87,4.13Zm-12.38-.8c-.64-.51-1.31-1.03-2.02-1.58-.71-.54-1.38-1.07-2.02-1.58l-.07.08c.07.22.1.49.08.81-.02.32-.04.59-.07.79-.1.43-.23.93-.4,1.52-.16.59-.32,1.18-.47,1.79-.15.61-.26,1.19-.34,1.75-.08.56-.08,1.02-.02,1.39.8-.07,1.55-.33,2.24-.78.69-.44,1.32-.98,1.91-1.62.37-.4.64-.79.83-1.19.19-.39.3-.85.35-1.39Z" />
    <path
      d="m481.93,413.46c-.57.73-1.14,1.33-1.69,1.82-.55.48-1.12.83-1.69,1.06-.58.23-1.18.33-1.81.31-.63-.02-1.32-.16-2.07-.42l-.09.12c.23.63.42,1.29.57,1.99s.21,1.31.18,1.87c-.1.73-.32,1.44-.65,2.11-.33.67-.73,1.31-1.21,1.92-.13.17-.3.31-.51.43-.21.12-.44.19-.69.23-.25.04-.51.02-.79-.05-.28-.07-.55-.22-.82-.43l-1.43-1.12c-.24-.19-.4-.4-.49-.63s-.13-.48-.1-.73c.03-.25.1-.51.21-.77.12-.26.27-.51.45-.75.4-.5.7-1.02.9-1.55.21-.53.34-1.02.39-1.49.05-.34,0-.74-.13-1.19-.14-.46-.34-.94-.6-1.45-.26-.51-.57-1.03-.93-1.56-.36-.53-.75-1.04-1.16-1.53-.09-.11-.16-.23-.2-.35-.04-.12-.03-.27.03-.44s.17-.38.34-.64c.17-.26.4-.58.71-.98.28-.36.57-.42.86-.19.08.06.23.21.45.43.22.23.47.49.75.79s.57.62.86.95c.29.33.56.63.81.89.87.54,1.73.58,2.6.12.87-.46,1.8-1.32,2.8-2.59l4.17,3.83Zm-4.92,13.62c-.19-.45-.3-.88-.33-1.27-.04-.39.05-.72.25-.97.11-.13.28-.27.52-.42.24-.15.62-.29,1.15-.42.5-.11.95-.16,1.35-.14.39.02.72.13.99.35.17.13.33.32.49.57.16.25.32.6.5,1.05.17.48.28.91.32,1.3.05.39-.03.71-.22.96-.11.15-.29.29-.53.44-.24.15-.62.28-1.13.4-.5.1-.95.14-1.36.11-.41-.03-.74-.13-.97-.32-.19-.15-.37-.35-.53-.59-.16-.24-.32-.59-.47-1.04Zm3.23-4.62c-.19-.46-.3-.88-.33-1.27-.04-.39.05-.72.26-.99.11-.15.29-.29.53-.43.24-.14.61-.27,1.13-.39.51-.12.97-.18,1.37-.16.4.01.73.13,1,.34.17.13.33.32.49.57.16.25.31.61.47,1.08.19.47.3.91.34,1.29.04.38-.04.7-.23.95-.11.13-.28.28-.53.43-.25.15-.63.29-1.15.43-.5.1-.95.14-1.35.11-.41-.03-.73-.14-.98-.33-.18-.14-.35-.33-.51-.58-.16-.24-.33-.59-.5-1.04Z" />
    <path
      d="m488.77,403.63c-.37.53-.79.97-1.27,1.34-.48.37-1,.65-1.56.84s-1.16.27-1.81.25c-.64-.02-1.32-.17-2.02-.43l-.11.16c.34.55.65,1.09.91,1.6.26.52.44,1.11.53,1.78-.01.39-.04.75-.08,1.07-.04.32-.11.63-.21.93-.1.3-.24.62-.42.95-.18.33-.41.69-.68,1.09-.12.18-.28.33-.49.45-.2.13-.43.22-.67.27-.25.05-.51.05-.79,0-.28-.06-.56-.19-.84-.38l-1.49-1.04c-.25-.17-.42-.37-.53-.6s-.15-.47-.14-.73c.01-.25.07-.51.17-.78.1-.27.24-.53.41-.77.51-.74.81-1.46.89-2.18.08-.72-.05-1.37-.37-1.94-.09-.25-.31-.57-.68-.97-.37-.4-.79-.77-1.29-1.11-.16-.11-.49-.32-.99-.62-.49-.3-1.09-.66-1.78-1.08-.69-.42-1.45-.87-2.27-1.36-.82-.49-1.65-.98-2.48-1.47-.83-.49-1.62-.97-2.38-1.42-.76-.45-1.42-.85-1.98-1.19-.33-.23-.58-.57-.75-1.04-.17-.46-.34-1.04-.51-1.75-.13-.49-.21-.94-.24-1.35-.03-.41,0-.69.1-.83.06-.09.15-.15.24-.18.1-.03.18-.02.23.02,1.12.71,2.36,1.49,3.74,2.34,1.37.85,2.75,1.7,4.14,2.55,1.39.85,2.72,1.66,4.01,2.44,1.28.78,2.39,1.45,3.32,2.01.58.36,1.14.63,1.67.83.53.2,1.04.29,1.52.28.48-.01.93-.14,1.37-.39.43-.25.83-.63,1.2-1.16l4.38,3.59Z" />
    <path
      d="m473.74,389.65c1.38-.64,2.83-1.25,4.34-1.85,1.52-.6,3.01-1.04,4.48-1.32.48-.08,1.02-.14,1.61-.18.6-.04,1.21-.04,1.84,0s1.26.15,1.89.3c.63.16,1.21.4,1.75.72.66.4,1.25.92,1.77,1.57.52.65.95,1.3,1.3,1.96.15.27.27.58.34.93.08.34.08.81,0,1.4-.08.6-.2,1.25-.37,1.93-.17.69-.41,1.44-.73,2.27s-.73,1.73-1.22,2.73c-.5,1-1.11,2.11-1.84,3.33-.11.18-.26.35-.45.49s-.41.25-.65.32-.51.09-.79.05c-.28-.04-.57-.14-.87-.32l-1.56-.93c-.26-.15-.45-.34-.57-.57s-.19-.46-.2-.71c0-.25.03-.52.11-.79.08-.28.2-.54.34-.78.99-1.66,1.77-3.07,2.32-4.21.55-1.14.95-2.11,1.19-2.9.24-.79.37-1.45.37-1.96,0-.51-.04-.97-.13-1.37-.45-.14-1-.13-1.66,0-.66.14-1.35.35-2.08.62-.73.28-1.46.59-2.2.95-.74.36-1.42.68-2.04.97l.55.58c.31.35.24.63-.19.86-.5.28-1,.55-1.5.8-.5.25-.96.46-1.4.63-.48.21-.99.25-1.53.12-.54-.13-1.13-.39-1.77-.77-.37-.22-.75-.48-1.13-.79-.39-.31-.77-.64-1.15-1-.38-.36-.73-.73-1.06-1.12-.33-.39-.63-.78-.89-1.17-.15-.34-.24-.9-.27-1.69-.03-.79-.01-1.73.06-2.81.07-1.08.18-2.25.34-3.52.15-1.27.34-2.55.57-3.84l1.54-9.17c.03-.18.11-.3.24-.36.13-.05.27-.04.4.04.18.11.43.3.73.57.3.27.67.68,1.11,1.22.59.71,1.02,1.3,1.3,1.77.28.46.38.87.3,1.22-.33,1.63-.61,3.1-.86,4.42-.25,1.31-.47,2.57-.66,3.77-.2,1.2-.37,2.41-.53,3.62-.16,1.21-.32,2.52-.48,3.93Z" />
  </g>
  <path class="cls-5"
    d="m532.07,384.88c.65.97,1.65,1.84,1.89,2.93,1.46,6.48,4.73,12.37,4.32,19.47-.34,5.87.24,5.99,5.19,4.55,7.3-2.12,14.64-4.03,21.99-5.9,1.36-.35,2.86-.05,4.78-.05-2.9,1.72-5.64,2.81-7.79,4.74-3.22,2.88-6.08,6.29-9,9.58-4.35,4.91-8.82,9.05-15.73,7.51-2.09-.46-4.45.82-6.7,1-.88.07-2.36-.43-2.64-1.14-1.53-3.77-3.02-7.62-4.02-11.6-.58-2.29-.41-4.92-.17-7.34.15-1.55,1.03-3.02,1.62-4.5,2.47-6.14,6.51-11.66,5.48-19.19l.77-.07ZM54.21,454.07c3.07,1.86,6.21,3.58,9.19,5.61,3.44,2.35,6.7,5.03,10.1,7.46,2.6,1.85,5.37,1.76,8.37,1.09,2.55-.56,5.33-.65,7.87-.11,2.7.58,3.61-.28,3.87-3.12.24-2.63.21-5.55,1.24-7.78,2.67-5.75,1.24-10.24-1.91-15.09-3.76-5.78-8.75-11.1-8.28-19.48-1.26,2.78-2.52,5.53-2.76,8.38-.52,6.23-.59,12.51-.71,18.77-.07,3.93-.38,4.04-3.71,3.7-7.9-.82-15.83-1.3-23.75-1.87-.42-.03-.87.38-1.92.88,1.14.73,1.77,1.16,2.42,1.56Zm462.99-40.7c-4.13,7.7-7.97,14.66-11.63,21.74-1.68,3.26-1.95,6.73-.46,10.37.9,2.19,1.54,4.59,1.88,6.98.6,4.19,1.6,5.21,5.42,4.84,2.16-.21,4.35-.63,6.48-.38,5.73.67,10.11-2.07,14.36-5.98,3.58-3.29,7.51-6.13,11.43-8.9,1.42-1.01,3.27-1.27,4.92-1.88-10.47-1.87-20.55.03-30.88,2.92,3.88-10.52-1.11-19.71-1.52-29.71Zm25.86-46.41c-1.07,3.27-2.14,6.55-3.4,9.73-1.26,3.17-1,6.04.61,8.93,2.03,3.63,4.02,7.29,5.9,11.03.97,1.93,2.07,2.16,3.83,1.43,2.21-.92,4.52-1.94,6.83-2.11,5.43-.4,9.26-3.5,12.41-8.12,1.44-2.12,2.89-4.24,4.31-6.38,2.44-3.68,5.16-6.96,9.21-8.44.57-.21,1.01-.84,1.52-1.28-10.64,1.44-20.61,4.92-30.3,11-.31-11.63-4.45-20.65-10.05-29.25,2.15,4.81.54,9.13-.87,13.46Zm8.61-21.85c-.94,4.74.68,8.32,3.41,11.69,1.86,2.29,3.59,4.74,5.13,7.31,1.08,1.8,2.1,1.69,3.65.93,2.33-1.14,4.73-2.22,7.19-2.89,4.73-1.29,8.44-3.6,10.82-8.84,3.34-7.37,6.28-15.26,13.45-19.57-.98-.2-1.76-.15-2.44.17-3.34,1.54-6.74,2.95-9.94,4.79-4.56,2.63-9.12,5.34-13.4,8.51-2.84,2.1-3.21,2.35-4.08-1.32-2.07-8.74-6.85-15.83-11.02-23.29-.23-.42-.76-.62-1.92-1.54,2.33,8.74.68,16.41-.84,24.06ZM40.29,146.16c-.7,2.04-1.29,4.28-1.29,6.42,0,2.91.13,6.07,1.13,8.66,1.21,3.13,3.56,5.68,5.13,8.67,1.25,2.39,2.78,2.7,4.95,2.06,2.38-.71,4.82-1.35,7.26-1.63,4.18-.47,7.46-2.55,9.98-6.22,4.4-6.42,7.45-14.26,14.84-17.8-1.4-.42-2.75-.76-3.9-.36-7.48,2.58-15.23,4.4-21.84,9.57-2.4,1.88-3.33,1.25-3.79-2.14-1.26-9.3-5.25-17.21-10.34-24.79,2.36,6.45-.19,11.93-2.12,17.57Zm-23.69,240.93c6.41.46,8.83,6.25,12.14,10.87,1.36,1.9,2.66,3.88,4.21,5.57,1.46,1.58,3.06,3.51,4.89,4.06,4.57,1.38,9.29,2.19,13.98,2.93.96.15,2.56-.62,3.05-1.53,2.04-3.83,3.88-7.82,5.56-11.87.57-1.37.88-3.22.57-4.65-.84-3.94-1.91-7.84-3.2-11.62-1.72-5.01-2.97-9.93-.47-15.07.02-.05-.25-.27-.42-.45-.25.18-.59.29-.74.55-4.55,8.08-8.75,16.35-9.69,26.1-.24,2.48-.6,3.65-3.21,2.54-7.22-3.05-14.51-5.89-21.84-8.61-1.39-.51-3.06-.07-4.6-.07-.07.42-.15.83-.22,1.25Zm-10.77-38.79c.61.74,1.11,1.72,1.85,2.18,4.24,2.59,6.4,7.1,8.66,11.55,1.33,2.62,2.61,5.32,4.26,7.68,1.24,1.77,2.81,3.7,4.6,4.45,4.68,1.94,9.56,3.26,13.93,4.69,2.11-2.93,4.06-5.88,6.25-8.58,2.79-3.44,4.58-7.13,3.71-11.97-.57-3.18-1.02-6.4-1.57-9.59-.74-4.25-1.46-8.45.67-12.53.42-.8.36-1.92.51-2.89-6.06,9.25-12.21,18.15-13.77,28.93-9.79-5.07-19.18-9.94-28.58-14.81l-.54.89Zm484.81,102.79c-2.25,3.32-5.14,6.14-7.11,9.64-1.33,2.36-2.02,5.5-2.14,8.33-.15,3.55.67,7.13.87,10.72.15,2.54,1.2,3.39,3.37,3.41,2.65.02,5.39-.08,7.93.63,4.21,1.18,7.9.27,11.59-1.98,6.76-4.11,12.77-10.08,20.88-10.96.23-.02.43-.41.64-.63l-.06-.88c-10.65.39-21.32-1.66-32.46,1.34,5.53-10.21,2.38-21.04,3.62-31.22-2.45,4.02-4.65,7.93-7.13,11.6Zm-449.04-23.86c2.58,2.07,4.8,4.77,6.98,7.39,2.97,3.57,6.49,5.03,10.81,4.88,2.53-.09,5.22.13,7.58,1.05,2.68,1.03,3.82.03,4.77-2.51,1.11-2.98,2.32-5.92,3.54-8.85,1.61-3.86,2.24-7.72.21-11.66-1.14-2.21-2.37-4.38-3.35-6.68-2.07-4.88-5.23-9.51-3.26-15.61-4.62,9.67-7.17,19.82-6.23,31.41-10.51-4.43-20.94-6.49-32.05-6.76,4.04,2.66,7.7,4.7,10.98,7.34Zm61.11,80.76c6.59,2.66,13.21,5.19,19.76,7.97,4.43,1.88,8.63,1.6,12.91-.55,1.86-.93,3.88-1.73,5.88-1.92,2.62-.24,3.43-1.66,3.26-4.3-.16-2.55-.75-5.17-.38-7.62.83-5.59-1.4-9.15-4.93-12.63-4.86-4.79-10.45-8.99-12.82-16.47-.34,1.16-.44,2.26-.48,3.36-.27,7.95,1.45,15.45,3.98,22.78,1.11,3.2.65,4.21-2.34,4.09-6.27-.25-12.33.8-18.34,2.69-2.32.73-4.77.95-7.64,1.49.72.71.9,1.02,1.14,1.12ZM536.13,86.57c-1.62,8.04-3.36,16.04-4.77,24.12-.41,2.37-.37,4.16-3.22,3.23-5.24-1.71-10.46-3.6-15.81-4.71-3.38-.7-6.98-.13-10.47-.13-.06.3-.12.61-.18.91,6.12.75,9.55,5.68,13.15,10.29,4.16,5.32,8.97,8.82,15.63,8.12,1.92-.2,3.93.1,5.85.48,2.55.5,4.03-.23,4.88-3.23.77-2.72,2.16-5.22,3.34-7.78,1.38-3,1.96-5.95.73-9.31-2.68-7.3-7.76-13.44-7.85-21.97-.42,0-.84-.02-1.27-.03ZM102.5,453.56c.41,7.73,1,15.46,2,23.12.45,3.43.56,3.78-2.49,3.75-7.52-.07-15.04,0-22.56.14-1.24.02-2.47.62-3.63.93,5.26,2.82,10.33,5.51,15.37,8.27,1.76.97,3.35,2.57,5.2,3.06,3.04.81,6.24,1.45,9.32,1.26,3.24-.2,6.41-1.59,9.65-2.22,2-.39,2.52-1.55,2.41-3.62-.11-2.06-.43-4.27.06-6.17,1.53-5.93.38-10.5-3.39-15.25-4.23-5.33-11.21-9.28-9.98-18.62-.7,1.78-2.06,3.61-1.97,5.35Zm417.78-319.33c3.21,3.37,6.57,6.59,9.59,10.17,2.26,2.68,4.21,5.74,6.08,8.8,1.68,2.74,4.01,3.89,6.76,4.36,3.56.61,7.14,1.12,10.69,1.86,1.98.42,3.05-.23,3.84-2.34.74-1.98,1.73-3.91,2.92-5.6,3.06-4.35,4.62-8.59,2.58-14.41-2.45-6.99-5.94-14.05-2.98-22.18-5.56,8.91-9.26,18.56-10.96,28.92-9.69-3.56-19.12-7.03-28.55-10.49l.03.91Zm-63.09,383.37c-5.05-1.18-10.17-1.91-15.27-2.79-2.17-.37-2.72-1.44-1.37-3.5,4.58-6.94,5.84-15.3,7.89-23.32.17-.68-.03-1.48-.08-2.61-1.66,2.17-2.82,4.26-4.45,5.71-3.48,3.09-7.16,5.9-10.81,8.73-4.15,3.22-6.85,7.22-6.78,13.25.03,2.26-.44,4.62-1.08,6.78-.93,3.13-.56,3.95,2.33,4.75,2.79.78,5.47,2.11,8.27,2.76,2.87.66,6.01,1.65,8.73.98,7.9-1.94,15.66-4.65,23.84-7.17-3.75-1.22-7.43-2.7-11.23-3.58Zm102.86-217.85c-.25,4.4-.69,8.78-.95,13.18-.26,4.43,1.6,7.76,4.46,10.62,2.08,2.07,4.06,4.28,5.92,6.59,1.33,1.66,2.49,2.07,4.26.77,1.97-1.45,4.02-3.13,6.24-3.72,5.55-1.49,8.49-5.47,10.42-11.21,2.28-6.76,3.92-14.04,9.59-18.8-9.35,4.65-18.65,9.15-25.83,18.77-2.19-10.51-9.02-16.19-14.1-23.57,0,2.87.11,5.13-.02,7.38ZM.63,312.39c4.29,2.83,6.28,7.52,8.03,12.43,1.19,3.34,1.99,7.01,3.8,9.86,1.56,2.46,4.16,4.24,6.55,5.84,2.32,1.55,4.93,2.62,7.49,3.63,1.1.43,2.8.75,3.55.12,2.69-2.28,5.08-5,7.61-7.53,2.59-2.59,4.26-5.57,4.03-9.7-.18-3.13.05-6.28-.1-9.41-.19-3.8-.59-7.59-.95-11.94-1.23,1.92-1.89,3.44-2.93,4.49-4.55,4.58-8.17,9.82-9.87,16.53-.54,2.14-1.59,2.23-2.95.97-.87-.81-1.64-1.77-2.48-2.62-6.47-6.5-14.72-9.39-22.39-13.65.21.34.34.8.63.99Zm237.87,218.32c3.42,4.59,6.66,9.36,10.31,13.7,2.15,2.56,4.97,4.39,7.44,6.62.66.6,1.59,1.46,1.58,2.19,0,.77-.86,1.75-1.57,2.24-5.94,4.16-11.98,8.13-17.86,12.39-1.93,1.4-3.48,3.47-5.21,5.24.19.34.39.67.58,1.01,4.11-4.72,9.3-4.13,14.33-4.1,8.93.05,17.05-1.79,22.48-10.89.68-1.13,1.7-2.03,2.64-2.93,1.68-1.6,1.45-2.96-.04-4.62-1.38-1.53-2.85-3.18-3.65-5.11-1.91-4.63-4.99-6.93-9.33-8.2-7.19-2.1-15.09-2.12-20.97-8.56-.25.33-.5.67-.75,1Zm-84.88,4.74c3.03.97,6.04,1.08,9.08-.46,3-1.52,6.14-2.69,9.27-3.85,2.41-.89,3.32-2.25,2.44-5.22-.7-2.37-.67-5-1.18-7.46-.47-2.27-.77-4.85-1.95-6.59-1.59-2.34-3.81-4.27-6.02-5.92-5.21-3.89-11.12-6.85-13.84-14.15-.41,1.41-.63,2.74-.37,3.94,1.58,7.53,3.94,14.69,7.94,21.08.89,1.42,1.54,3.04,2.65,5.26-11.38.31-21.12,4.01-30.7,8.7,8.01-.71,15.29,2.3,22.68,4.68Zm281.24,6.21c-.44-.47-.91-1.01-1.47-1.25-7.6-3.23-14.8-7.83-23.18-8.34-.72-.04-1.62-.47-2.04-1.07-.23-.34.16-1.65.6-2.1,6.56-6.57,8.61-15.98,12.19-24.42.43-1.02.61-2.18.91-3.28-.26-.18-.51-.36-.77-.55-2.56,7.76-8.97,9.92-14.51,13.38-1.99,1.24-3.95,2.53-5.85,3.93-3.19,2.35-5.04,5.59-5.53,9.97-.27,2.36-.97,4.8-1.99,6.88-1.17,2.39-.48,3.34,1.43,4.17,2,.87,4.15,1.56,5.88,2.92,4.99,3.92,10.24,3.93,15.99,2.83,6.12-1.18,12.04-5.44,18.87-1.5-.31-.98-.34-1.38-.52-1.58Zm37.98-62.21c.97-4.78,1.12-9.76,1.6-14.38-2.8,3.41-5.51,6.88-8.39,10.16-2.1,2.4-4.4,4.58-6.65,6.8-3.16,3.12-4.02,6.98-3.67,11.62.19,2.54-.22,5.38-1.13,7.71-1.03,2.67-.38,3.26,1.79,3.61,2.73.44,5.59.67,8.1,1.81,4.33,1.97,8.36,1.97,12.58-.2,6.77-3.49,13.39-7.63,21.87-7.13-9.93-6.86-20.4-4.05-30.42-5.33,1.53-5.08,3.32-9.77,4.31-14.67Zm-71.59,78.94c-.72-.88-1.29-2.12-2.18-2.59-6.98-3.73-14.01-7.33-21.04-10.93-1.06-.54-2.19-.89-3.29-1.33.76-1.16,1.34-2.62,2.32-3.45,6.23-5.18,9.17-13.06,13.22-20.02.41-.71.41-1.71.67-2.88-1.48,1.22-2.58,2.44-3.9,3.15-4.93,2.64-10.02,4.92-14.88,7.72-2.59,1.5-5.4,3.3-7.05,5.85-2.39,3.7-3.85,8.17-5.65,12.34-.78,1.81-.4,2.97,1.5,3.65,1.64.58,3.53,1.3,4.61,2.67,4.65,5.92,10.57,6.12,16.83,5.45,6.19-.67,12.44-2.73,18.5,1.23.11-.29.22-.57.34-.86ZM65.14,100c-.68,2.6-1.16,5.31-2.1,7.79-1.42,3.73-3.11,7.34-4.79,10.93-2.03,4.33-1.71,8.44.43,12.59.92,1.79,1.68,3.73,2.2,5.71,1.01,3.84,2.04,4.58,5.6,3.63,1.69-.45,3.45-1.16,5.13-1.02,6.19.52,10.99-2.17,15.11-7.16,3.94-4.78,8.08-9.35,12.25-14.13-9.17,1.93-18.55,3.99-27.97,8.36,1.25-10.13-2.96-18.16-4.98-26.83-.3.04-.59.08-.89.12Zm301.25,469.31c-4.02-3.16-7.94-6.5-12.09-9.41-4.22-2.96-8.69-5.49-13.06-8.22,3.53-3.69,7.38-7.26,10.72-11.36,3.4-4.17,6.3-8.86,9.41-13.33-.22-.26-.45-.53-.67-.79-4.69,5.17-10.61,6.83-16.72,8.43-4.67,1.22-9.9,1.93-12.59,7.73-1.66,3.59-3.72,6.95-5.43,10.52-.26.55.2,1.9.7,2.49,1.9,2.26,3.78,4.63,5.99,6.44,2.27,1.86,4.81,3.59,7.47,4.5,2.5.86,5.33.91,7.99.77,6.11-.34,12.22-1.2,17.59,3.64.23-.47.45-.95.68-1.42Zm-202.55-20.18c3.86,0,7.74-.22,11.58.07,3.07.24,6.1,1.46,9.16,1.59,3.24.13,6.74.21,9.7-1.01,4.02-1.66,7.68-4.46,11.35-7.04.68-.47,1.11-2.34.87-3.32-.62-2.51-1.97-4.8-2.5-7.33-.88-4.26-2.93-7.38-6.21-9.54-1.78-1.17-3.61-2.27-5.5-3.18-5.07-2.44-9.86-5.28-13.52-10.28,2.95,10.18,6.56,19.9,13.31,27.35-5.41,1.9-10.25,3.37-14.94,5.31-4.67,1.93-9.19,4.33-13.77,6.52l.47.85Zm33.84,14.26c4.48-.6,8.09-1.38,11.72-1.49,4.53-.13,9.1.61,13.62.34,2.32-.14,4.79-1.28,6.81-2.66,3.49-2.4,6.74-5.28,9.97-8.13.45-.4.58-1.94.28-2.62-1.4-3.18-3.08-6.21-4.53-9.37-2.3-5.02-6.52-6.75-10.83-8.63-4.39-1.91-8.65-4.26-12.86-6.65-1.24-.7-2.14-2.18-3.2-3.3-.24.23-.49.47-.73.7,4.77,9.14,9.04,18.68,17.73,25.53-10.17,4.38-19.48,8.78-27.98,16.28ZM511.74,59.67c-.59,7.95-1.34,15.9-1.62,23.87-.14,3.97-.38,4.56-3.82,3.84-3.96-.82-7.92-1.66-11.92-2.16-4.25-.53-8.54-.66-12.69-.96,5.26,4.45,10.53,8.62,15.48,13.22,3.38,3.14,7.12,3.96,11.25,3.89,3.37-.05,6.74-.22,10.1,0,1.76.11,2.45-.56,2.78-2.33.68-3.63,1.25-7.3,2.2-10.84.98-3.64.53-6.75-1.29-9.93-3.58-6.25-8.84-11.46-9.32-20.27-.71,1.01-1.11,1.32-1.14,1.67Zm-421.43,10.78c-1.61,3.72-3.09,7.52-4.87,11.14-1.39,2.84-3.11,5.49-4.76,8.16-2.2,3.56-2.55,7.22-.91,11.19.82,1.99,2.05,4.21,1.86,6.17-.41,4.17,1.32,4.72,4.25,4.5,1.95-.15,3.96-.33,5.88.02,6.59,1.17,11.6-2.12,16.19-6.81.76-.78,1.39-1.79,2.25-2.39,3.3-2.3,6.65-4.5,10.01-6.69.78-.51,1.66-.85,2.49-1.27-.09-.35-.18-.7-.27-1.06-9.72,1.31-19.44,2.61-28.7,3.85-.92-9.19-1.81-18.11-2.7-27.03-.24.07-.48.14-.72.21Zm-26.76,105.16c-7.17,4.36-14.38,8.63-21.43,13.23-2.21,1.44-2.84,1.42-3.91-1.43-2.33-6.16-5.1-12.12-7.95-18-1.2-2.49-3.04-4.59-4.71-7.04.52,3.91,1.4,7.31,1.29,10.65-.13,3.79-1.1,7.55-1.84,11.3-.95,4.86.12,8.92,3.27,12.41,1.9,2.11,3.58,4.48,5.51,6.55.68.72,1.97,1.45,2.74,1.21,3.56-1.09,7.02-2.61,10.56-3.82,3.28-1.12,5.62-3.44,7.09-6.8,2.71-6.17,5.4-12.32,10.43-16.65.5-.44.76-1.24,1.48-2.48-1.26.42-1.96.52-2.54.88Zm472.63-12.14c.73.91,1.49,1.78,2.17,2.73,2.58,3.58,5.81,6.81,7.54,10.86,3.1,7.29,7.83,11.31,14.72,12.88,6.06,1.38,7.36,1.03,10.97-4.68.36-.56.75-1.14,1.23-1.56,3.82-3.35,4.98-7.52,4.06-12.95-1.18-7.02-2.92-14.16,0-21.24.07-.18-.24-.55-.56-1.26-5.79,9.16-11.64,17.89-13.18,28.85-8.8-4.96-17.48-9.84-26.17-14.73-.26.36-.52.73-.78,1.09ZM143.6,51.55c5.15-9.05,5.61-18.12,5.82-27.48-.95.35-1.21,1.17-1.7,1.74-4.25,4.89-8.71,9.58-12.74,14.69-1.47,1.86-2.4,4.62-2.78,7.13-.55,3.63-.51,7.4-.43,11.11.02.88,1.02,2.27,1.79,2.5,3.67,1.12,7.39,2.35,11.16,2.69,2.97.27,6.24-.09,9-1.27,6.48-2.79,12.74-6.24,18.61-9.19-8.57-2.79-18.1-3.47-28.72-1.9Zm286.55-4.23c1.72.45,3.53.68,5.15,1.4,5.29,2.35,10.43,5.14,15.79,7.21,2.17.83,4.82.58,7.17.19,2.94-.49,5.76-1.9,8.7-2.42,2.43-.43,3.46-1.68,3.47-4.33,0-2.79-.23-5.66.22-8.36.64-3.81-.61-6.55-2.87-9.05-4.63-5.12-9.24-10.28-13.88-15.4-.25-.27-.66-.36-1.86-.96,2.01,9.51,3.84,18.22,5.73,27.16-4.48.32-9.19.47-13.86,1.06-4.65.58-9.25,1.6-13.87,2.42.03.37.06.73.09,1.1Zm-288.16,24.45c-7.42.24-14.84.47-22.25.91-2.03.12-2.97-.54-2.2-2.64,2.12-5.82,1.51-11.88,1.62-17.9.04-2.2.28-4.4.49-7.36-4.93,7-9.51,13.1-13.62,19.57-1.18,1.86-1.37,4.81-1.39,7.26-.03,3.55.59,7.1.76,10.66.1,2.15,1.07,2.75,2.78,2.8,2.36.08,4.85-.14,7.06.6,4.76,1.59,8.85.51,12.97-2.31,5.16-3.54,9.85-8.15,16.02-9.57.33-.07.58-.54,1.44-1.39-1.62-.29-2.65-.66-3.68-.63Zm58.17-34.95c-7.04-1.7-14.08-3.39-21.12-5.12-2.54-.62-2.91-2.06-1.9-4.83,1.98-5.44,3.55-11.07,5.27-16.62.59-1.9,1.13-3.81,1.49-5.02-4.29,3.79-8.63,8.28-13.53,11.79-6.97,4.99-8.68,12.26-8.37,20.69.04,1.03.85,2.5,1.65,2.93,3.25,1.74,6.66,3.1,9.98,4.7,3.03,1.46,5.87,1.23,8.97-.13,6.59-2.89,13.33-5.36,19.84-7.94-.5-.1-1.4-.23-2.28-.45Zm275.65,38.64c3.55,2.21,7.2,2.5,11.07,1.02,2.23-.85,4.58-1.52,6.92-1.77,2.38-.25,3.17-1.54,3.38-3.99.23-2.64.47-5.36,1.2-7.86,1-3.4.18-5.99-1.61-8.72-4.14-6.3-10.19-11.08-12.29-19.18-.67,8.48-2.22,16.88.67,25.16,1.14,3.26.58,3.94-2.41,3.81-5.98-.27-11.97-.49-17.95-.5-2.19,0-4.38.65-6.67,1.02,6.23,3.88,11.95,7.45,17.68,11.01Zm-53.92-36.29c1.75.49,3.84,1.02,5.43.42,4.27-1.61,8.36-3.82,12.52-5.8,1.8-.85,1.96-2.19,1.41-4.24-.68-2.53-1.11-5.21-1.2-7.84-.12-3.41-1.19-6.08-3.63-8.07-5.6-4.55-11.21-9.1-16.81-13.63.06.62,0,1.59.27,2.4,2.23,6.6,4.51,13.17,6.81,19.74.68,1.95,1.57,3.57-1.44,4.22-6.98,1.52-13.9,3.39-20.83,5.19-.81.21-1.53.87-2.72,1.57,7.23,2.19,13.68,4.22,20.18,6.05Zm133.01,167.89c2.04,7.42,6.28,11.83,12.34,15.04,4.07,2.16,7.51,3.83,10.81-1.08.4-.6,1.22-.85,1.83-1.28,5.22-3.66,7.58-8.92,7.13-15.83-.22-3.42-.64-6.88-.35-10.26.25-2.89,1.4-5.67,2.29-9.02-5.58,7.13-11.08,13.73-14.37,22.17-1.24,3.16-2.37,3.64-5.05,1.99-.98-.6-1.74-1.63-2.69-2.31-5.84-4.2-11.71-8.36-17.68-12.61,2.09,4.68,4.52,8.72,5.74,13.19Zm-540.08-1.86c.18,6.26.1,12.57.77,18.77.27,2.47,1.98,4.96,3.5,6.99,1.9,2.52,4.2,4.7,6.51,6.76.72.64,2.16.88,3.05.55,2.24-.81,4.27-2.4,6.53-3.06,6.18-1.8,9.09-6.73,10.73-13.14,1.35-5.26,2.87-10.44,6.65-14.28.06-.06-.1-.4-.2-.78-1.81,1.09-3.73,1.94-5.35,3.27-4.47,3.66-9.11,7.17-13.11,11.41-3.15,3.34-4.13,3.56-6.24-.77-3.22-6.6-7-12.76-12.36-18.46-.26,1.43-.5,2.09-.48,2.74Zm544.31,26.58c1.01,3.9,2.28,7.72,3.1,11.66,2.66,12.8,15.71,17.54,24.49,8.8,1.97-1.96,4.41-3.37,4.8-6.9.61-5.5,1.56-10.95,2.32-16.43.11-.8-.07-1.65-.13-2.83-.74.53-1.14.7-1.4,1.02-4.5,5.55-9.03,11.08-13.44,16.71-2.24,2.86-2.17,2.66-4.57-.02-4.36-4.89-9.04-9.41-13.63-14.04-.32-.32-.92-.28-1.74-.5.08,1.05.02,1.83.2,2.53ZM9.11,251.94c.17,7.42,2.1,13.08,8.44,16.78,5.93,3.45,17.08.52,20.27-6.23.24-.5.34-1.09.47-1.65.62-2.69,1.23-5.39,1.84-8.09.79-3.5,1.57-6.99,2.35-10.49-1.61.23-2.65.77-3.38,1.63-3.98,4.72-7.95,9.46-11.8,14.31-2.06,2.6-3.54,2.45-5.36-.27-3.34-5-6.86-9.87-10.5-14.6-.89-1.16-2.53-1.59-4.22-2.59.74,4.23,1.8,7.69,1.88,11.19Zm17.62,39.65c-.78,1.61-2.09,4.03-3.16,4.04-1.42,0-2.95-1.86-4.26-3.16-3.39-3.35-6.64-6.88-10.05-10.2-.66-.64-1.78-.68-3.38-1.24.57,2.83.78,4.89,1.4,6.8,1.62,5.03,1.63,10.94,6.15,14.41,3.28,2.52,6.5,5.16,9.81,7.63.43.32,1.52.22,1.92-.18,5.03-5.02,11.06-9.23,12.13-17.68.57-4.51,1.74-9,.37-14.48-4.65,4.3-8.29,8.62-10.93,14.06Zm550.22,4.46c3.58-2.56,7.15-4.86,10.44-7.58,1.27-1.05,2.07-2.98,2.8-4.67.93-2.15,1.39-4.55,2.35-6.67,1.74-3.85,2.32-7.91,2.52-12.3-1.48.53-2.56,1.28-3.47,2.25-2.01,2.14-3.94,4.37-5.88,6.6-1.12,1.3-2.27,2.58-3.26,4.01-.81,1.18-1.24,2.72-2.12,3.82-1.58,1.97-4.24,1.57-4.66-.94-.91-5.42-4.31-8.54-7.58-11.91-1.4-1.44-2.72-2.96-4.24-4.63-3.67,11.36,2.76,26.31,13.09,32.03ZM382.55,3.13c3.8,4.08,7.49,8.32,11.52,12.11,5.71,5.38,12.54,5.31,19.92,4.59-1.22-2.14-2.28-3.71-3.07-5.42-2.31-5.01-5.86-7.71-10.86-8.69-5.82-1.15-11.98-1.06-17.23-4.91-.25-.18-.75.05-1.49.14.5.93.74,1.69,1.21,2.19Zm-173.56,17.27c2.33-2.46,4.58-5.04,6.8-7.63,1.93-2.26,3.77-4.63,6.22-7.64-1.4.18-1.88.17-2.33.31-5.13,1.65-10.18,3.91-15.41,4.85-7.61,1.37-10.98,7.35-14.6,14.81,7.27,0,13.92.99,19.32-4.7Zm90.6,529.91c-2.72.04-6.56,3.32-6.58,5.62-.02,2.96,4.32,7.21,7.21,7.05,2.61-.14,5.84-3.9,5.8-6.74-.06-3.47-2.79-5.98-6.42-5.93Z" />
  <g>
    <path d="m307.84,132.25h-16.97c.74-1.69,2.98-5.22,8.83-5.22s7.62,3.52,8.14,5.22Z" />
    <path
      d="m308.16,134.29h-17.72l-1.65,16.02h.97c.81-2.73,2.34-6.77,4.36-6.77s3.58,4.04,4.4,6.77h.5s1.24-.01,1.24-.01c.82-2.73,2.38-6.77,4.4-6.77s3.55,4.04,4.36,6.77h.78l-1.65-16Zm-14.01,7.3c-1.13,0-2.05-.42-2.05-.94s.92-.94,2.05-.94,2.05.42,2.05.94-.92.94-2.05.94Zm10.49,0c-1.13,0-2.05-.42-2.05-.94s.92-.94,2.05-.94,2.05.42,2.05.94-.92.94-2.05.94Z" />
    <path
      d="m328.4,322.39l-3.7.02c.14-12.2-11.65-11.5-11.65-11.5,0,0-12.85-.47-11.57,11.65l-3.23.02c.17-12.24-11.65-11.54-11.65-11.54,0,0-12.87-.47-11.56,11.68l-3.92.02,8.96-87.43c13.34,12.62,40.89,19.8,40.89,19.8l7.43,67.28Z" />
    <path d="m295.1,322.6s0,.04,0,.05h-16.93c-1.22-9.63,8.28-9.26,8.28-9.26,0,0,9.39-.51,8.65,9.21Z" />
    <path
      d="m321.55,322.43c0,.06,0,.12-.02.19h-16.93s0-.05,0-.08c-1.15-9.54,8.29-9.18,8.29-9.18,0,0,9.31-.5,8.66,9.07Z" />
    <path
      d="m314.96,200.49s-8.72-1.67-29.74-15.45l3.32-32.28h3.27c-.19-.43.15-5.35,2.32-5.31,2.23,0,2.41,4.95,2.32,5.31h3.32s2.58-.01,2.58-.01c-.09-.37.09-5.31,2.32-5.31,2.17-.04,2.5,4.88,2.32,5.31h3.07l4.91,47.74Z" />
  </g>
</svg>
